<!-- Generated by IcoMoon.io -->
<svg version="1.1" xmlns="http://www.w3.org/2000/svg" width="1024" height="1024" viewBox="0 0 1024 1024">
<title></title>
<g id="icomoon-ignore">
</g>
<path fill="#000" d="M584.634 249.57h-402.222c-6.404 0-11.595-5.191-11.595-11.595v0-47.217c0-6.404 5.191-11.595 11.595-11.595v0h402.222c6.404 0 11.595 5.191 11.595 11.595v0 47.217c0 6.404-5.191 11.595-11.595 11.595v0zM194.008 226.38h379.031v-24.027h-379.031z"></path>
<path fill="#000" d="M580.461 718.677h-393.783c-0.001 0-0.002 0-0.004 0-6.404 0-11.595-5.191-11.595-11.595 0-0.098 0.001-0.196 0.004-0.293v0.016-426.715c0-6.404 5.191-11.595 11.595-11.595v0h393.783c0 0 0 0 0 0 6.353 0 11.503 5.15 11.503 11.503 0 0.031 0 0.067 0 0.098v-0.005 426.715c0.004 0.112 0.007 0.241 0.007 0.37 0 6.353-5.15 11.503-11.503 11.503-0.002 0-0.005 0-0.007 0v0zM198.273 695.487h370.501v-404.172h-370.501z"></path>
<path fill="#000" d="M776.657 575.267h-148.42c-6.404 0-11.595-5.191-11.595-11.595s5.191-11.595 11.595-11.595v0h148.42c6.404 0 11.595 5.191 11.595 11.595s-5.191 11.595-11.595 11.595v0z"></path>
<path fill="#000" d="M776.657 616.083h-148.42c-6.404 0-11.595-5.191-11.595-11.595s5.191-11.595 11.595-11.595v0h148.42c6.404 0 11.595 5.191 11.595 11.595s-5.191 11.595-11.595 11.595v0z"></path>
<path fill="#000" d="M450.125 804.949h-271.058c-6.404 0-11.595-5.191-11.595-11.595s5.191-11.595 11.595-11.595v0h271.058c6.404 0 11.595 5.191 11.595 11.595s-5.191 11.595-11.595 11.595v0z"></path>
<path fill="#000" d="M450.125 845.95h-271.058c-6.404 0-11.595-5.191-11.595-11.595s5.191-11.595 11.595-11.595v0h271.058c6.404 0 11.595 5.191 11.595 11.595s-5.191 11.595-11.595 11.595v0z"></path>
<path fill="#000" d="M791.868 804.949h-271.15c-6.404 0-11.595-5.191-11.595-11.595s5.191-11.595 11.595-11.595v0h271.15c6.404 0 11.595 5.191 11.595 11.595s-5.191 11.595-11.595 11.595v0z"></path>
<path fill="#000" d="M791.868 845.95h-271.15c-6.404 0-11.595-5.191-11.595-11.595s5.191-11.595 11.595-11.595v0h271.15c6.404 0 11.595 5.191 11.595 11.595s-5.191 11.595-11.595 11.595v0z"></path>
<path fill="#000" d="M776.657 656.806h-148.42c-6.404 0-11.595-5.191-11.595-11.595s5.191-11.595 11.595-11.595v0h148.42c6.404 0 11.595 5.191 11.595 11.595s-5.191 11.595-11.595 11.595v0z"></path>
<path fill="#000" d="M776.657 697.528h-148.42c-6.404 0-11.595-5.191-11.595-11.595s5.191-11.595 11.595-11.595v0h148.42c6.404 0 11.595 5.191 11.595 11.595s-5.191 11.595-11.595 11.595v0z"></path>
<path fill="#000" d="M785.373 760.33h-606.305c-6.404 0-11.595-5.191-11.595-11.595s5.191-11.595 11.595-11.595v0h606.305c6.404 0 11.595 5.191 11.595 11.595s-5.191 11.595-11.595 11.595v0z"></path>
<path fill="#000" d="M836.675 902.909h-665.95c-25.031-0.053-45.31-20.332-45.364-45.358v-713.172c0-6.404 5.191-11.595 11.595-11.595v0h522.632c0.007 0 0.015 0 0.023 0 3.173 0 6.048 1.276 8.144 3.343l-0.001-0.001 177.087 176.25c2.118 2.058 3.434 4.934 3.434 8.117 0 0.017 0 0.030 0 0.047v-0.003 570.777c0 6.404-5.191 11.595-11.595 11.595v0zM148.552 155.974v701.571c0.053 12.223 9.946 22.117 22.165 22.169h654.361v-554.819l-170.222-168.922z"></path>
<path fill="#000" d="M831.198 331.669h-171.615c-6.404 0-11.595-5.191-11.595-11.595v0-171.615c0-6.404 5.191-11.595 11.595-11.595s11.595 5.191 11.595 11.595v0 160.018h160.018c6.404 0 11.595 5.191 11.595 11.595s-5.191 11.595-11.595 11.595v0z"></path>
<path fill="#000" d="M859.865 902.909h-23.19c-6.404 0-11.595-5.191-11.595-11.595s5.191-11.595 11.595-11.595v0h23.19c14.192 0 26.254-17.996 26.254-39.425v-357.603c0-8.147-6.605-14.752-14.752-14.752v0h-30.889c-6.404 0-11.595-5.191-11.595-11.595s5.191-11.595 11.595-11.595v0h30.889c20.956 0 37.942 16.986 37.942 37.942v0 357.603c0 34.508-22.169 62.615-49.444 62.615z"></path>
<path fill="#000" d="M423.598 502.725c-6.308 0-11.041-7.051-11.041-16.327s4.732-16.235 11.041-16.235 11.133 6.955 11.133 16.235-4.825 16.327-11.133 16.327zM423.598 479.345c-0.743 2.078-1.237 4.481-1.387 6.977l-0.004 0.072c-0.021 0.238-0.029 0.514-0.029 0.794 0 2.4 0.814 4.61 2.183 6.372l-0.019-0.024c0.842-2.107 1.375-4.549 1.482-7.1l0.002-0.044c0.002-0.072 0.003-0.156 0.003-0.238 0-2.503-0.989-4.776-2.603-6.443l0.003 0.003z"></path>
<path fill="#000" d="M341.684 502.725c-6.308 0-11.041-7.051-11.041-16.327s4.732-16.235 11.041-16.235 11.041 6.955 11.041 16.235-4.732 16.327-11.041 16.327zM341.684 479.345c-0.794 2.086-1.296 4.496-1.39 7.007l-0.001 0.041c-0.026 0.281-0.044 0.606-0.044 0.939 0 2.356 0.821 4.521 2.191 6.225l-0.016-0.021c0.789-2.112 1.288-4.551 1.389-7.099l0.002-0.046c0.004-0.1 0.007-0.217 0.007-0.332 0-2.458-0.955-4.693-2.516-6.351l0.005 0.005z"></path>
<path fill="#000" d="M387.697 618.68c-58.572-1.943-105.317-49.89-105.317-108.756 0-0.899 0.012-1.8 0.031-2.693l-0.003 0.132c0-21.245 1.576-53.155 3.896-79.404 0.286-4.89 4.322-8.75 9.264-8.75 0.265 0 0.53 0.012 0.793 0.032l-0.033-0.003c4.77 0.421 8.483 4.401 8.483 9.242 0 0.308-0.016 0.607-0.043 0.906l0.003-0.037c-2.228 25.233-3.803 57.236-3.803 77.736-0.024 0.742-0.033 1.612-0.033 2.481 0 48.638 38.434 88.3 86.589 90.273l0.177 0.006c25.695 0 75.601-32.932 75.601-92.765 0-6.77 0-13.545 0.65-20.131 0.415-4.569 0.652-9.886 0.652-15.253 0-7.307-0.44-14.512-1.294-21.589l0.083 0.851c-0.068-0.417-0.105-0.899-0.105-1.391 0-5.179 4.201-9.38 9.38-9.38 4.692 0 8.576 3.441 9.268 7.936l0.007 0.053c0.896 7.042 1.412 15.186 1.412 23.454 0 5.688-0.243 11.319-0.718 16.881l0.050-0.725c0 6.401-0.65 12.801-0.65 19.294-0.185 73.189-61.501 111.596-94.341 111.596z"></path>
<path fill="#000" d="M382.13 567.66c-0.035 0-0.077 0-0.12 0-4.787 0-9.454-0.505-13.949-1.468l0.435 0.076c-2.060-0.542-3.556-2.385-3.556-4.584 0-0.381 0.045-0.751 0.129-1.108l-0.007 0.031c0.53-2.021 2.338-3.49 4.495-3.49 0.412 0 0.815 0.055 1.197 0.157l-0.031-0.008c1.114 0 28.759 6.678 42.484-13.453 0.827-1.23 2.213-2.033 3.786-2.033 0.981 0 1.886 0.312 2.625 0.838l-0.016-0.010c1.249 0.842 2.058 2.254 2.058 3.856 0 0.946-0.284 1.828-0.772 2.564l0.012-0.019c-8.287 11.383-21.568 18.7-36.557 18.7-0.781 0-1.557-0.022-2.328-0.060l0.109 0.005z"></path>
<path fill="#000" d="M323.411 454.024c-0.113 0.010-0.24 0.016-0.37 0.016-2.572 0-4.651-2.085-4.651-4.651 0-2.438 1.877-4.441 4.263-4.639l0.019-0.001 21.614-3.526c0.213-0.032 0.456-0.054 0.699-0.054 2.319 0 4.24 1.703 4.585 3.923l0.004 0.024c0.044 0.238 0.072 0.51 0.072 0.794 0 2.274-1.667 4.158-3.847 4.494l-0.024 0.004-21.614 3.526z"></path>
<path fill="#000" d="M434.079 466.359c-0.211 0.041-0.451 0.068-0.698 0.068s-0.487-0.024-0.719-0.072l0.024 0.004-20.87-6.678c-1.906-0.64-3.256-2.41-3.256-4.498 0-0.481 0.072-0.943 0.206-1.381l-0.010 0.032c0.626-1.871 2.363-3.198 4.406-3.198 0.512 0 1.007 0.082 1.468 0.237l-0.031-0.010 20.87 6.678c1.906 0.64 3.256 2.41 3.256 4.498 0 0.481-0.072 0.943-0.206 1.381l0.010-0.032c-0.718 1.757-2.413 2.967-4.392 2.967-0.024 0-0.043 0-0.067 0h0.004z"></path>
<path fill="#000" d="M287.42 527.491c-18.555 0-33.209-18.555-33.209-40.724s14.936-40.724 33.209-40.724c5.125 0 9.275 4.155 9.275 9.275s-4.155 9.275-9.275 9.275v0c-7.976 0-14.656 10.204-14.656 22.169s6.678 22.169 14.656 22.169c5.125 0 9.275 4.155 9.275 9.275s-4.155 9.275-9.275 9.275v0z"></path>
<path fill="#000" d="M474.895 527.491c-5.125 0-9.275-4.155-9.275-9.275s4.155-9.275 9.275-9.275v0c7.976 0 14.752-10.112 14.752-22.169s-6.77-22.169-14.752-22.169c-5.125 0-9.275-4.155-9.275-9.275s4.155-9.275 9.275-9.275v0c18.555 0 33.302 18.555 33.302 40.724s-14.752 40.724-33.302 40.724z"></path>
<path fill="#000" d="M455.601 455.416c-25.048 0-50.743-10.948-72.357-20.038-7.946-3.796-17.544-7.485-27.452-10.469l-1.491-0.386c-20.223-4.548-60.295 13.453-74.21 20.685-1.261 0.683-2.76 1.083-4.352 1.083-5.125 0-9.275-4.155-9.275-9.275 0-2.25 0.8-4.314 2.138-5.922l-0.014 0.017 26.254-31.726c0.576-0.754 1.285-1.375 2.097-1.838l0.033-0.020c20.554-13.404 45.702-21.39 72.715-21.429h0.012c1.367-0.047 2.967-0.072 4.58-0.072 42.573 0 80.736 18.865 106.59 48.69l0.15 0.174c1.21 1.547 1.943 3.516 1.949 5.656v13.173c0.005 0.111 0.008 0.239 0.008 0.367 0 4.202-2.792 7.748-6.618 8.889l-0.067 0.019c-5.656 1.547-12.153 2.432-18.851 2.432-0.647 0-1.287-0.009-1.929-0.024l0.095 0.002zM346.786 405.32c0.085-0.001 0.188-0.001 0.291-0.001 3.806 0 7.518 0.408 11.095 1.178l-0.346-0.064c12.635 3.397 23.487 7.451 33.841 12.385l-1.187-0.507c22.728 9.275 50.466 21.245 74.21 17.903v-2.32c-22.422-24.221-54.385-39.332-89.878-39.332-1.666 0-3.329 0.032-4.982 0.1l0.237-0.008c-0.026 0-0.064 0-0.096 0-22.983 0-44.43 6.599-62.544 18.004l0.487-0.286-0.837 0.929c11.726-4.487 25.289-7.358 39.435-7.966l0.267-0.010z"></path>
<path fill="#000" d="M473.689 438.718v0c-5.125 0-9.275-4.155-9.275-9.275v0c0-17.441 0-64.006-38.404-82.931-33.765-16.512-80.518-6.493-102.040 21.891-5.938 11.242-10.46 24.291-12.873 38.067l-0.118 0.799c-0.895 4.366-4.707 7.605-9.275 7.605-5.222 0-9.458-4.235-9.458-9.458 0-0.655 0.069-1.297 0.194-1.915l-0.012 0.062c0.65-3.434 7.051-34.046 16.42-46.38 27.178-35.622 83.486-47.868 125.138-27.364 48.977 24.119 48.792 80.983 48.792 99.72-0.051 5.020-4.078 9.079-9.080 9.182h-0.011z"></path>
<path fill="#000" d="M320.998 645.208c-5.125 0-9.275-4.155-9.275-9.275v0-51.39c0-5.125 4.155-9.275 9.275-9.275s9.275 4.155 9.275 9.275v0 51.39c0 5.125-4.155 9.275-9.275 9.275v0z"></path>
<path fill="#000" d="M443.539 641.87c-5.125 0-9.275-4.155-9.275-9.275v0-46.38c0-5.125 4.155-9.275 9.275-9.275s9.275 4.155 9.275 9.275v0 46.38c0 5.125-4.155 9.275-9.275 9.275v0z"></path>
<path fill="#000" d="M401.799 320.070c0 4.61-3.736 8.351-8.351 8.351s-8.351-3.736-8.351-8.351c0-4.61 3.736-8.351 8.351-8.351s8.351 3.736 8.351 8.351z"></path>
<path fill="#000" d="M558.38 706.153c-0.008 0-0.018 0-0.024 0-3.49 0-6.529-1.928-8.112-4.778l-0.024-0.047c-17.441-32.003-88.217-55.66-164.655-55.66-57.421 0-121.986 6.863-165.861 57.698-1.702 1.839-4.123 2.984-6.814 2.984-5.125 0-9.275-4.155-9.275-9.275 0-2.232 0.789-4.276 2.096-5.877l-0.014 0.018c48.792-56.399 118.275-64.098 179.869-64.098 69.852 0 156.309 20.593 180.982 65.772 0.719 1.286 1.142 2.824 1.142 4.46 0 3.501-1.943 6.552-4.805 8.13l-0.048 0.024c-1.040 0.441-2.253 0.698-3.526 0.698-0.326 0-0.65-0.019-0.968-0.050l0.039 0.004z"></path>
</svg>
