<!-- Generated by IcoMoon.io -->
<svg version="1.1" xmlns="http://www.w3.org/2000/svg" width="1163" height="1024" viewBox="0 0 1163 1024">
<title></title>
<g id="icomoon-ignore">
</g>
<path fill="#000" d="M651.409 0c-0.196 0-0.428 0-0.66 0-106.598 0-205.549 32.738-287.347 88.709l1.746-1.128c-3.963 2.873-6.511 7.489-6.511 12.699 0 8.637 7.002 15.639 15.639 15.639 3.113 0 6.013-0.909 8.45-2.477l-0.062 0.037c75.378-51.418 168.466-82.103 268.722-82.103 265.547 0 480.815 215.268 480.815 480.815 0 50.74-7.86 99.645-22.428 145.563l0.932-3.405c-5.223-2.696-11.4-4.277-17.946-4.277-12.069 0-22.882 5.374-30.179 13.859l-0.044 0.053-0.751 1.001-58.616 84.202c-5.686 6.839-9.137 15.712-9.137 25.392 0 11.894 5.211 22.57 13.474 29.872l0.043 0.037 13.95 14.138c-88.783 106.744-221.637 174.2-370.247 174.2-179.736 0-336.426-98.672-418.856-244.802l-1.246-2.402c-2.724-4.831-7.822-8.039-13.669-8.039-8.638 0-15.64 7.002-15.64 15.64 0 2.791 0.731 5.411 2.012 7.679l-0.041-0.078c89.176 158.174 256.081 263.241 447.526 263.241 282.787 0 512.031-229.244 512.031-512.031 0-282.762-229.203-511.991-511.956-512.031h-0.004zM1037.012 798.731l-12.074-12.511-0.751-0.688c-3.184-2.746-5.188-6.786-5.188-11.294 0-3.697 1.347-7.079 3.578-9.682l-0.017 0.020 0.751-1.001 58.554-84.077c2.718-2.947 6.599-4.787 10.91-4.787 3.676 0 7.039 1.338 9.629 3.552l-0.020-0.017c-17.238 46.014-39.293 85.819-66.262 121.722l0.89-1.237z"></path>
<path fill="#000" d="M152.765 375.844c-6.256 52.298 4.504 87.017 29.339 93.836 2.454 0.704 5.274 1.114 8.188 1.126h0.007c18.392 0 37.534-16.327 54.487-46.417l47.981 25.023c-0.5 38.535 10.322 63.558 30.966 68.938 2.177 0.56 4.677 0.881 7.251 0.881 0.2 0 0.399-0.002 0.598-0.006h-0.030c10.697 0 26.149-5.505 43.29-28.651 108.599 54.612 255.922 126.491 280.006 130.369 3.23 0.55 6.955 0.868 10.753 0.876h0.007c15.449-0.845 29.807-4.701 42.766-10.988l-0.665 0.291c25.023-10.072 53.924-21.52 112.165-7.882 71.566 16.703 126.991-16.89 152.264-92.147 38.16-113.604-4.942-298.398-107.786-344.065-143.882-64.121-215.572-41.1-238.593-29.214-29.133-10.611-62.792-17.432-97.831-18.931l-0.697-0.024c-4.864-0.268-10.556-0.42-16.284-0.42-40.544 0-79.305 7.638-114.921 21.553l2.149-0.739c-22.27-8.57-98.277-33.155-207.753-18.767-103.595 13.575-150.137 53.674-170.969 84.953-19.768 29.652-21.832 58.554-17.579 74.255 0.626 2.377 1.439 5.317 8.946 11.761v0c-16.515 60.493-17.078 130.057 20.456 140.191 2.509 0.715 5.39 1.126 8.368 1.126 0.005 0 0.011 0 0.016 0h-0.001c28.776 0 54.362-39.661 70.127-80.636 12.574 7.257 26.9 15.076 42.977 23.709zM190.299 439.527v0c-3.19-1.689-9.634-16.39-7.757-47.669l34.281 18.016c-12.637 22.396-23.459 29.652-26.274 29.652zM332.117 487.947v0c-1.877-1.001-5.755-8.007-7.382-22.833l21.77 11.073c-7.882 9.696-13.325 11.761-14.388 11.761zM45.479 222.766c17.266-25.899 57.115-59.242 149.011-71.315 118.859-15.639 196.618 18.767 197.306 18.767 1.935 0.918 4.205 1.454 6.6 1.454s4.665-0.536 6.695-1.495l-0.096 0.041c31.125-12.967 67.282-20.498 105.199-20.498 5.377 0 10.719 0.151 16.022 0.45l-0.735-0.033c34.558 1.309 67.096 8.357 97.215 20.213l-2.003-0.695c1.869 0.853 4.055 1.35 6.356 1.35 3.773 0 7.234-1.336 9.936-3.561l-0.027 0.021c0.5-0.438 57.74-41.538 214.571 28.276 86.829 38.535 124.927 204.625 91.146 305.592-14.013 41.726-45.417 88.018-115.543 71.628-67.812-15.827-104.283-1.314-130.87 9.321-14.388 5.755-25.023 9.884-36.283 8.007-44.666-7.882-587.413-285.949-628.388-321.294-0.044-0.954-0.070-2.073-0.070-3.197 0-16.17 5.235-31.117 14.102-43.24l-0.144 0.207zM81.762 337.371c-16.953 46.105-36.909 64.246-42.289 64.246v0c-6.256-3.378-13.637-37.847-1.189-90.896 10.885 6.881 25.023 15.452 43.79 26.149z"></path>
<path fill="#000" d="M510.467 869.546c64.934 0 146.572-20.331 178.538-34.031 48.419-20.769 85.015-42.414 117.733-86.016 19.774-24.686 43.15-45.473 69.532-61.886l1.158-0.671c4.696-2.757 7.798-7.782 7.798-13.532 0-5.199-2.537-9.805-6.44-12.649l-0.045-0.031c-36.221-26.149-88.206-25.023-122.612-24.272h-7.945c-16.015 0-29.527 9.884-42.602 19.143s-24.522 17.453-37.159 17.453c-14.889 0-18.767-3.691-27.463-11.823-10.167-10.384-22.588-18.518-36.475-23.615l-0.684-0.22c-22.646-8.258-58.554-5.067-96.526-1.752-30.591 2.69-62.557 5.505-80.824 1.189l-1.439-0.375c4.942-45.917-5.005-76.883-27.525-83.889-20.769-6.256-43.79 9.571-64.684 43.79-14.388-7.507-28.839-15.452-42.914-23.334 4.379-45.104-5.63-75.069-27.775-81.7-18.767-5.755-38.848 6.256-57.865 33.531-61.118-31.904-82.013-32.53-95.4-21.958-16.515 13.074-9.446 36.221-2.002 60.681 2.39 6.937 4.87 15.953 6.874 25.147l0.32 1.752c12.074 64.246 288.952 247.351 332.742 267.808 16.14 8.132 38.66 11.26 63.683 11.26zM387.855 582.658c2.815 1.626 8.445 15.201 6.256 43.79-10.51-4.316-21.895-9.446-33.781-15.264 13.95-21.895 24.96-28.589 27.525-28.526zM252.731 521.728c2.377 1.376 7.257 11.886 6.881 34.657l-9.384-5.317-18.767-10.572c11.761-15.452 19.768-18.705 21.269-18.767zM144.695 585.286c-2.538-12.237-5.301-22.39-8.59-32.303l0.582 2.026c-2.586-7.298-4.908-16.131-6.535-25.205l-0.159-1.069c8.57 0.751 33.656 8.132 104.658 49.358 53.799 31.279 118.859 67.374 164.463 83.389 1.785 1.161 3.899 1.978 6.172 2.305l0.083 0.010h1.439c4.504 1.439 8.821 2.69 12.824 3.628 23.396 5.442 56.302 2.502 90.583-0.5 31.279-2.753 66.936-5.88 83.076 0 10.241 3.883 18.943 9.769 25.993 17.233l0.031 0.033c11.398 12.551 27.781 20.4 45.997 20.4 1.028 0 2.050-0.025 3.066-0.074l-0.143 0.006c22.583 0 40.725-12.887 55.238-23.209 9.196-6.256 18.767-13.262 25.023-13.387h8.132c23.271-0.5 55.613-1.251 81.95 7.569-21.599 15.937-40.239 34.12-56.139 54.541l-0.475 0.634c-28.651 38.222-60.18 56.802-105.034 76.007-46.543 19.956-172.971 44.291-216.698 23.834-58.992-27.4-307.406-201.997-315.539-245.225z"></path>
<path fill="#000" d="M623.070 392.922c0 0.438 0.563 0.876 0.813 1.314s0.5 0.876 0.813 1.251c0.438 0.52 0.888 0.989 1.365 1.429l0.011 0.010 0.751 0.751c0.752 0.635 1.592 1.215 2.485 1.711l0.080 0.041 121.299 66.561c0.911 0.49 1.971 0.917 3.080 1.225l0.11 0.026h0.813c1.007 0.257 2.169 0.415 3.364 0.438h0.015c1.471-0.004 2.892-0.209 4.239-0.59l-0.111 0.027c47.659-14.118 81.836-57.51 81.836-108.884 0-62.604-50.75-113.354-113.354-113.354s-113.354 50.75-113.354 113.354c0 11.338 1.665 22.287 4.763 32.616l-0.207-0.802c0.337 1.107 0.741 2.060 1.23 2.961l-0.041-0.083zM658.791 319.042c14.236-25.573 41.107-42.588 71.952-42.588 45.329 0 82.075 36.746 82.075 82.075 0 34.996-21.903 64.876-52.747 76.68l-0.563 0.189-108.912-60.055c-1.166-5.163-1.835-11.092-1.835-17.177 0-14.351 3.717-27.834 10.241-39.538l-0.212 0.413z"></path>
<path fill="#000" d="M189.173 307.844c13.234 5.505 28.591 8.814 44.69 9.070l0.101 0.001c25.023 0 44.353-9.571 51.297-27.338 10.76-27.588-14.263-61.369-58.303-78.509-13.218-5.59-28.588-8.838-44.717-8.838-3.881 0-7.718 0.188-11.502 0.556l0.481-0.038c-20.269 2.502-34.594 11.948-40.349 26.587-10.76 27.525 14.326 61.306 58.303 78.509zM160.022 240.658c1.251-3.253 7.132-6.256 15.014-6.944 2.121-0.277 4.575-0.436 7.066-0.438h0.003c12.114 0.247 23.581 2.729 34.099 7.048l-0.631-0.229c29.777 11.636 43.165 31.279 40.537 38.035s-25.774 12.136-55.551 0.5-43.165-31.154-40.537-37.972z"></path>
<path fill="#000" d="M1056.029 542.246l-36.784-20.269c-1.735-0.969-3.807-1.539-6.011-1.539-4.871 0-9.092 2.784-11.159 6.848l-0.033 0.071-25.648 51.422c-2.085-0.386-4.485-0.607-6.936-0.607-15.66 0-29.213 9.019-35.749 22.145l-0.104 0.232-0.5 1.126-36.033 96.088c-2.421 4.993-3.835 10.86-3.835 17.057 0 15.59 8.953 29.089 21.998 35.637l0.23 0.104 23.522 11.636c4.461 2.3 9.731 3.661 15.317 3.691h0.010c5.306-0.014 10.301-1.332 14.686-3.649l-0.172 0.083c8.175-4.485 14.634-11.225 18.652-19.383l0.115-0.259 58.929-84.452c0.317-0.462 0.629-0.994 0.904-1.549l0.035-0.078c2.599-5.152 4.12-11.229 4.12-17.661 0-12.416-5.67-23.508-14.561-30.828l-0.069-0.055 24.522-49.17c0.816-1.616 1.294-3.523 1.294-5.541 0-4.799-2.702-8.968-6.668-11.066l-0.068-0.033zM1008.423 616.69c1.074 3.191 3.306 5.749 6.185 7.224l0.071 0.033 3.253 1.626c4.939 2.475 8.27 7.497 8.27 13.298 0 2.112-0.442 4.122-1.238 5.94l0.037-0.095-58.804 84.265c-0.317 0.462-0.629 0.994-0.904 1.549l-0.035 0.078c-1.698 3.917-4.434 7.116-7.863 9.334l-0.082 0.049c-0.983 0.524-2.15 0.832-3.389 0.832-1.459 0-2.818-0.427-3.959-1.162l0.029 0.017-23.522-11.636c-4.954-2.47-8.297-7.5-8.297-13.311 0-2.398 0.569-4.663 1.58-6.667l-0.039 0.085 0.5-1.126 35.97-95.963c2.555-4.679 7.441-7.8 13.055-7.8 2.4 0 4.667 0.57 6.673 1.583l-0.085-0.039 1.189 0.626c1.622 0.823 3.537 1.306 5.565 1.306 4.878 0 9.104-2.792 11.168-6.865l0.033-0.071 25.023-49.483 14.826 8.195-24.522 48.294c-0.879 1.667-1.394 3.643-1.394 5.74 0 1.485 0.259 2.91 0.734 4.231l-0.027-0.087z"></path>
</svg>
