<?xml version="1.0" encoding="UTF-8"?>
<svg id="Layer_1" data-name="Layer 1" xmlns="http://www.w3.org/2000/svg" width="100" height="100" viewBox="0 0 100 100">
  <defs>
    <style>
      .cls-1 {
        fill: #000;
        stroke-width: 0px;
      }
    </style>
  </defs>
  <path class="cls-1" d="M41.85,72.07c2.4.89,5.7,1.43,9.09,1.43s6.54-.49,9.21-1.63c8.38-3.57,12.17-11.39,14.29-16.97,2.21-5.8,1.56-14.05,1.34-16.18l4.1-3.89c.25-.24.36-.58.29-.92-.07-.34-.3-.62-.62-.74l-5.09-1.95c-.66-1.46-3.09-6.4-6.98-8.5-4.57-2.47-12.2-3.18-18.65,2.91-5.04,4.75-7.58,10.5-8.12,11.8-1.19.97-6.81,5.89-13.55,17.04-2.89,4.77-7.13,14.38-7.35,17.3-.04.46.15.87.5,1.15-3.97,3.38-13.42,11.52-15.11,13.84-1.39,1.9-.95,3.7.1,4.64.53.47,1.26.77,2.05.77.02,0,.05,0,.07,0-.03.92.32,1.67.84,2.17.6.57,1.41.86,2.26.86s1.77-.3,2.51-.9c.53-.43,16.08-16.4,23.89-24.42,1.08.62,2.64,1.36,4.93,2.21ZM28.88,55.49c7.22-11.94,13.22-16.61,13.28-16.66.15-.11.26-.27.33-.44.02-.06,2.47-6.37,7.72-11.32,5.68-5.36,12.35-4.75,16.33-2.6,3.85,2.08,6.22,7.84,6.25,7.9.1.26.31.46.57.56l4,1.53-3.31,3.14c-.23.22-.34.53-.3.85.01.1,1.15,9.62-1.17,15.73-2.16,5.68-5.61,12.6-13.2,15.84-5.03,2.14-12.5,1.77-16.82.17-1.93-.72-3.26-1.33-4.18-1.82.86-.88,1.56-1.6,2.06-2.12,3.19-1.61,5.9-3.16,7.31-4.23,8.77-6.64,13.61-14.33,13.22-17.93-.06-.55-.57-.94-1.1-.89-.55.06-.95.55-.89,1.1.27,2.53-4,9.73-12.43,16.12-1.56,1.19-4.14,2.64-7.07,4.09-.04.01-.07.03-.11.05-6.12,3.04-13.71,6.06-16.76,6.65-.08,0-.15.01-.23.04-.17.03-.34.05-.47.06.63-3.04,4.26-11.33,6.98-15.83ZM6.62,89.89c-.47-.42-.39-1.17.19-1.97,1.62-2.21,12.27-11.37,16.4-14.86.8-.16,1.73-.4,2.76-.72-5.3,4.96-15.74,14.83-17.56,17.27-.02.03-.04.06-.06.1-.66.58-1.36.5-1.73.17ZM11.77,92.72c-.76.62-1.7.56-2.13.15-.42-.4-.28-1.17.37-2.05,2.3-3.09,20.19-19.69,20.38-19.85.08-.08.14-.17.19-.27,1.51-.6,3.08-1.27,4.63-1.97-8.67,8.91-22.79,23.4-23.45,23.99Z"/>
  <path class="cls-1" d="M65.35,34.69c1.36.02,2.48-1.07,2.5-2.44,0-.25-.04-.49-.11-.72-.2.42-.63.71-1.12.71-.68,0-1.23-.57-1.22-1.25,0-.5.31-.92.74-1.11-.23-.07-.47-.13-.72-.13-1.36-.02-2.48,1.07-2.5,2.44-.02,1.36,1.07,2.48,2.44,2.5Z"/>
  <path class="cls-1" d="M52.81,49.31c.17.11.36.17.55.17.33,0,.64-.16.84-.45l.58-.88c.3-.46.18-1.08-.28-1.39-.46-.3-1.08-.18-1.39.28l-.58.88c-.3.46-.18,1.08.28,1.39Z"/>
  <path class="cls-1" d="M54.98,45.84c.17.1.35.15.53.15.33,0,.66-.17.85-.47.16-.26.55-.94.56-1.55,0-.55-.43-1.02-.99-1.03-.51,0-1,.42-1.01.97-.02.1-.14.36-.25.55-.29.47-.15,1.08.32,1.38Z"/>
  <path class="cls-1" d="M49.27,46.19c.17.11.36.17.55.17.33,0,.64-.16.84-.45l.58-.88c.3-.46.18-1.08-.28-1.39-.46-.31-1.08-.18-1.39.28l-.58.88c-.3.46-.18,1.08.28,1.39Z"/>
  <path class="cls-1" d="M25.92,66.92c.16.39.53.63.93.63.12,0,.25-.02.37-.07.48-.19,11.96-4.83,20.19-11.23,2.03-1.58,3.42-2.79,4.95-4.7.35-.43.28-1.06-.15-1.41-.43-.35-1.06-.28-1.41.15-1.42,1.75-2.72,2.89-4.62,4.37-8.01,6.23-19.59,10.91-19.71,10.96-.51.21-.76.79-.56,1.3Z"/>
  <path class="cls-1" d="M29.71,61.72c.13,0,.26-.02.38-.08.3-.12,7.33-3.05,12.74-7.46,5.12-4.17,6.02-5.33,6.14-5.52.3-.45.19-1.05-.25-1.36-.44-.31-1.06-.21-1.39.22-.03.04-.87,1.12-5.77,5.11-5.18,4.22-12.17,7.13-12.24,7.16-.51.21-.75.8-.54,1.31.16.39.53.62.92.62Z"/>
  <path class="cls-1" d="M50,8.73c-22.76,0-41.27,18.51-41.27,41.27,0,8.16,2.38,16.04,6.87,22.81.3.46.92.58,1.39.28.46-.31.58-.93.28-1.39-4.27-6.44-6.53-13.94-6.53-21.7,0-21.65,17.62-39.27,39.27-39.27s39.27,17.62,39.27,39.27-17.62,39.27-39.27,39.27c-7.45,0-14.69-2.09-20.96-6.05-.47-.3-1.08-.16-1.38.31-.29.47-.16,1.08.31,1.38,6.58,4.16,14.2,6.36,22.03,6.36,22.76,0,41.27-18.51,41.27-41.27S72.76,8.73,50,8.73Z"/>
</svg>