<?xml version="1.0" encoding="UTF-8"?>
<svg id="Layer_1" data-name="Layer 1" xmlns="http://www.w3.org/2000/svg" width="100" height="100" viewBox="0 0 100 100">
  <defs>
    <style>
      .cls-1 {
        fill: #000;
        stroke-width: 0px;
      }
    </style>
  </defs>
  <path class="cls-1" d="M51.51,20.59c-.39,0-.75.11-1.07.28.23.2.38.48.38.81,0,.6-.49,1.09-1.09,1.09-.18,0-.34-.05-.49-.13,0,.08-.03.16-.03.25,0,1.27,1.03,2.3,2.3,2.3s2.3-1.03,2.3-2.3-1.03-2.3-2.3-2.3Z"/>
  <path class="cls-1" d="M80.44,57.62c.11.04.22.06.33.06.42,0,.8-.26.95-.67.18-.52-.1-1.09-.62-1.27-2.34-.81-6.69-2.31-8.4-6.26-2.94-6.8.34-10.92.48-11.09.35-.42.29-1.05-.13-1.4-.42-.36-1.05-.3-1.41.12-.17.21-4.24,5.19-.78,13.17,2.06,4.76,7.15,6.51,9.59,7.35Z"/>
  <path class="cls-1" d="M64.3,50.61c4.53,12.67,15.9,13.31,18.14,13.31.55,0,1-.45,1-1s-.45-1-1-1c-2,0-12.18-.58-16.25-11.98-3-8.39,2.67-15.33,2.73-15.4.35-.42.3-1.05-.12-1.41-.42-.35-1.05-.3-1.41.12-.27.32-6.47,7.86-3.08,17.35Z"/>
  <path class="cls-1" d="M58.87,37.8c.07.02.15.02.22.02.46,0,.87-.31.97-.78.39-1.75,1.43-3.21,1.44-3.22.32-.45.22-1.07-.23-1.4s-1.07-.22-1.39.22c-.05.07-1.28,1.79-1.77,3.95-.12.54.22,1.07.75,1.2Z"/>
  <path class="cls-1" d="M85.75,70.7c1.31.06,2.31.03,2.93.02.17,0,.31,0,.41,0,.34,0,.65-.17.84-.45.18-.28.22-.64.08-.95-.03-.07-3.15-7.3-3.75-8.91l-.09-.24c-2.63-7.13-11.52-30.95-15.41-37.88-.07-.13-.16-.3-.27-.5-4.5-8.48-10.09-12.98-16.62-13.39-7.15-.45-12.59,3.28-15.32,10.49-.22.58-.41,1.27-.58,2.01-1.02.28-5.35,1.47-7.88,2.34-.36.12-.62.44-.67.82-.05.38.12.75.44.96,4.28,2.84,6.16,3.99,7.07,4.46-.31,6.45.11,13.69.94,17.81.55,2.74,3.91,16.65,15.58,21.2.04.02.08.03.12.04-5.11-.3-11.91-.71-18.71-1.11-.05-.02-.09-.06-.14-.08-.15-.05-14.9-4.91-20.02-16.69-.7-1.61-1.3-3.04-1.77-4.2-.21-.51-.8-.76-1.3-.55-.51.21-.76.79-.55,1.3.46,1.13,1.04,2.51,1.71,4.07-1.29-.36-3.07-1.28-4.29-3.6-1.83-3.48-1.03-7.71-.04-9.77,1.11.55,3.26,1.83,5.26,4.18,2.08,2.44,1.99,5.33,1.75,7.3-.07.55.32,1.05.87,1.12.57.07,1.05-.32,1.12-.87.46-3.66-.26-6.56-2.21-8.84-3.21-3.77-6.72-5.06-6.87-5.11-.43-.15-.9,0-1.16.37-1.26,1.82-3.13,7.51-.49,12.55,2.15,4.09,5.68,4.79,7.15,4.89,3.81,6.92,10.48,11.26,15.12,13.59-11.12-.65-20.88-1.22-21.38-1.22-.55,0-.99.45-1,1,0,.55.44,1,1,1,.52,0,9.31.51,20.29,1.16-2.28.9-4.83,2.3-7.06,4.49-.06-.01-.11-.03-.17-.04h0c-.31,0-5.14.09-7.54,5.31-2.37,5.17-.21,10.76,1.15,12.51.19.25.49.39.79.39.13,0,.26-.02.39-.08.14-.06,3.58-1.53,6.59-5.46,1.83-2.39,2.4-5.31,1.74-8.95-.1-.54-.62-.9-1.16-.81-.54.1-.91.62-.81,1.16.35,1.95.59,4.83-1.36,7.38-1.88,2.46-3.96,3.84-5.04,4.45-1.09-2.01-2.11-6.19-.47-9.76,1.04-2.26,2.63-3.28,3.87-3.75-.87,1.2-1.64,2.57-2.25,4.14-.2.51.05,1.09.57,1.3.12.05.24.07.36.07.4,0,.78-.24.93-.64,4.12-10.51,15.92-11.29,16.04-11.29.05,0,.09-.03.13-.03,9.59.56,19.86,1.17,27.35,1.62.02,0,.04,0,.06,0,.09,0,.17-.03.25-.05,1.81.33,3.43.52,4.89.69,1.1.13,2.15.25,3.15.41,1.6.26,2.22.5,2.42.6.63,1.15,4.49,8.17,5.41,9.93.7,1.33,2.14,3.8,2.21,3.9.15.26.41.43.7.48.34.06,1.1.08,2.02.08.96,0,2.1-.03,3.11-.07.04,0,.08-.01.11-.02.04,0,.07.02.1.02.01,0,.02,0,.04,0l7.26-.25c.28,0,.54-.14.73-.35.18-.21.27-.49.23-.77-.03-.25-.11-.9-8.87-14.92ZM32.7,24.47c1.71-.52,3.63-1.07,4.83-1.4-.2,1.28-.36,2.69-.47,4.16-1.04-.62-2.66-1.66-4.35-2.76ZM86.7,84.98l-6.99-13.24c-.26-.49-.86-.68-1.35-.42-.49.26-.68.86-.42,1.35l6.53,12.37c-1.17.02-2.13.02-2.68,0-.46-.78-1.4-2.41-1.9-3.37-.97-1.86-5.06-9.3-5.49-10.07-.26-.58-1.09-1.06-3.79-1.5-1.04-.17-2.11-.29-3.24-.43-3.57-.42-7.61-.89-13.21-3.07-10.71-4.17-13.83-17.17-14.35-19.73-1.44-7.16-1.41-21.97.6-27.3,1.69-4.47,5.35-9.69,13.32-9.2,5.79.36,10.83,4.51,14.98,12.33.12.22.22.41.29.55,3.82,6.8,12.66,30.5,15.28,37.59l.09.24c.46,1.24,2.26,5.44,3.2,7.65-2.66.02-8.21-.26-15.22-3.4-8.58-3.84-10.74-8.72-12.1-12.99-1.6-5.04-1.35-9.07-.94-12.01.07-.55-.31-1.05-.86-1.13-.55-.08-1.05.31-1.13.86-.43,3.15-.7,7.46,1.02,12.88,1.6,5.03,4.3,10.23,13.19,14.21,4.63,2.07,8.65,2.96,11.71,3.33,2.88,4.61,7.12,11.47,8.75,14.31l-5.31.18Z"/>
  <path class="cls-1" d="M10.31,42.51c-.52.2-.77.78-.58,1.29l.17.46c.15.4.53.64.93.64.12,0,.24-.02.36-.07.52-.2.77-.78.58-1.29l-.17-.46c-.2-.52-.78-.77-1.29-.58Z"/>
  <path class="cls-1" d="M16.72,82.09c-.52-.2-1.09.06-1.29.58l-.17.46c-.2.52.06,1.09.58,1.29.12.05.24.07.36.07.4,0,.78-.24.93-.64l.17-.46c.2-.52-.06-1.09-.58-1.29Z"/>
  <path class="cls-1" d="M62.9,31.46c.22,0,.44-.07.63-.22,0,0,.3-.24.59-.44.46-.31.58-.93.27-1.39-.31-.46-.93-.58-1.39-.27-.36.25-.73.54-.73.54-.43.35-.49.98-.14,1.41.2.24.49.37.78.37Z"/>
</svg>