<!-- Generated by IcoMoon.io -->
<svg version="1.1" xmlns="http://www.w3.org/2000/svg" width="1024" height="1024" viewBox="0 0 1024 1024">
<title></title>
<g id="icomoon-ignore">
</g>
<path fill="#000" d="M348.16 217.574c0 12.567-10.188 22.755-22.755 22.755s-22.755-10.188-22.755-22.755c0-12.567 10.188-22.755 22.755-22.755s22.755 10.188 22.755 22.755z"></path>
<path fill="#000" d="M786.79 661.844l8.527-113.207-39.708-2.992-6.355 84.342-69.417-58.917-209.159 2.506v-39.636c18.224-0.959 36.106-4.872 53.266-11.707 19.108-7.611 36.323-18.407 51.273-32.135l298.732-10.138-85.412-41.534c-194.445-99.584-319.952-235.534-333.695-250.788-12.74-14.137-43.625-47.803-55.312-55.048-17.848-11.065-38.335-16.913-59.243-16.913-14.937 0-29.582 2.958-43.528 8.793-35.236 14.739-59.536 46.247-66.663 81.965l-50.773 44.537 56.869 19.299c5.475 13.488 13.483 25.812 23.612 36.195 4.047 4.148 16.498 14.771 36.584 31.632-5.239 30.375-1.999 61.359 9.546 90.341 21.686 54.431 68.942 92.528 124.926 102.898v42.715l-210.001 2.515c4.688-34.324-2.19-69.531-20.124-101.036-21.521-37.813-55.736-64.719-96.336-75.761l-19.12-5.2-5.294 19.094c-11.241 40.547-5.575 83.702 15.946 121.516 8.752 15.377 19.63 28.911 32.154 40.344-58.108 12.479-107.228 56.743-122.886 114.316l-5.197 19.121 19.094 5.294c13.357 3.703 27.206 5.58 41.161 5.58 66.678 0 127.966-42.658 151.322-103.333l300.054-3.592-40.717 42.979c-17.828-6.897-36.707-10.444-56.325-10.444-62.469 0-119.839 35.435-146.159 90.272l-8.573 17.863 17.82 8.66c21.219 10.314 44.159 15.542 68.179 15.542 30.501 0 59.775-8.465 84.823-23.495-0.93 11.816-0.629 23.866 1.047 36.002 5.948 43.101 27.727 80.787 61.331 106.111l15.823 11.923 12.003-15.763c25.488-33.476 36.25-75.65 30.305-118.75-5.095-36.922-21.839-69.844-47.649-94.45l63.581-67.114 98.305-1.178 332.805 282.465 25.771-30.362-237.212-201.329zM342.926 413.699c-10.012-25.128-11.838-52.217-5.287-78.341l3.028-12.074-14.54-12.216c-9.313-7.81-34.050-28.551-37.828-32.418-8.809-9.029-15.152-20.371-18.34-32.801-8.846-34.496 9.285-70.885 42.168-84.64 9.054-3.788 18.529-5.709 28.162-5.709 13.488 0 26.721 3.783 38.063 10.809 3.182 2.202 18.835 16.831 46.975 48.059 12.907 14.324 121.87 132.4 292.779 231.030l-159.787 5.424-5.57 5.632c-12.37 12.515-27.019 22.198-43.545 28.779-15.206 6.059-31.13 9.127-47.331 9.127-52.736 0.003-99.428-31.657-118.947-80.661zM315.735 734.101c22.504-30.208 59.286-48.836 98.854-48.836 10.357 0 20.426 1.293 30.119 3.86-22.503 30.205-59.286 48.836-98.854 48.836-10.352 0-20.421-1.295-30.119-3.86zM511.736 779.25c3.37 24.419-0.594 49.097-10.959 70.353-15.735-17.657-26.234-40.339-29.604-64.758-3.368-24.417 0.594-49.097 10.963-70.356 15.735 17.661 26.234 40.344 29.6 64.761zM114.597 446.085c21.166 10.553 39.335 27.718 51.529 49.142 12.194 21.422 17.676 45.809 15.941 69.394-21.166-10.553-39.335-27.718-51.529-49.143-12.194-21.422-17.676-45.804-15.941-69.392zM60.255 680.015c-2.938 0-5.868-0.114-8.784-0.336 20.028-40.339 63.173-67.878 109.845-67.878 2.938 0 5.868 0.114 8.784 0.336-20.028 40.339-63.176 67.878-109.845 67.878z"></path>
</svg>
