<?xml version="1.0" encoding="UTF-8"?>
<svg id="Layer_1" data-name="Layer 1" xmlns="http://www.w3.org/2000/svg" width="100" height="100" viewBox="0 0 100 100">
  <defs>
    <style>
      .cls-1 {
        fill: #000;
        strokeWidth: 0px;
      }
    </style>
  </defs>
  <path class="cls-1" d="M57.42,63.83c5.53,0,10.03-4.5,10.03-10.03s-4.5-10.03-10.03-10.03-10.03,4.5-10.03,10.03,4.5,10.03,10.03,10.03ZM57.42,45.77c4.43,0,8.03,3.6,8.03,8.03s-3.6,8.03-8.03,8.03-8.03-3.6-8.03-8.03,3.6-8.03,8.03-8.03Z"/>
  <path class="cls-1" d="M60.1,60.01c.15,0,.31-.04.46-.11,2.29-1.18,3.71-3.52,3.71-6.1,0-2.15-.98-4.14-2.69-5.45-.44-.34-1.07-.25-1.4.19-.34.44-.25,1.07.19,1.4,1.21.93,1.91,2.34,1.91,3.86,0,1.83-1.01,3.48-2.63,4.32-.49.25-.68.86-.43,1.35.18.34.53.54.89.54Z"/>
  <path class="cls-1" d="M56.52,60.61c.26.05.47.06.64.06.1,0,.18,0,.25,0,.55,0,1-.45,1-1s-.45-1-1-1c-.01,0-.12,0-.13,0-.11,0-.22,0-.38-.02-.55-.1-1.07.25-1.17.79-.1.54.25,1.07.79,1.17Z"/>
  <path class="cls-1" d="M57.42,71.52c9.77,0,17.72-7.95,17.72-17.72s-7.95-17.72-17.72-17.72-17.72,7.95-17.72,17.72,7.95,17.72,17.72,17.72ZM57.42,38.08c8.67,0,15.72,7.05,15.72,15.72s-7.05,15.72-15.72,15.72-15.72-7.05-15.72-15.72,7.05-15.72,15.72-15.72Z"/>
  <path class="cls-1" d="M88.81,27.54l-.32-1.39c-.07-1.06-.95-1.9-2.03-1.9h-5.6c-1.08,0-1.96.84-2.03,1.9l-.3,1.31h-2.78l-3.44-5.34c-.77-1.35-2.05-3.14-4.35-3.14h-22.75c-2.04,0-2.94.89-3.8,2.39l-3.76,6.09h-3.54c-.42-.84-1.24-2.77-2.28-5.39-.32-.8-1.08-1.32-1.95-1.32h-3.83v-2.96c0-1.12-.91-2.04-2.04-2.04h-9.6c-1.12,0-2.04.91-2.04,2.04v4.19l-2.4,3.88c-2.74.29-4.88,2.61-4.88,5.43v47.47c0,3.01,2.45,5.46,5.46,5.46h11.06c2.01,0,3.76-1.09,4.71-2.71h61.49c3.88,0,7.03-3.16,7.03-7.03v-39.98c0-3.55-2.65-6.49-6.07-6.96ZM92.88,34.5v8.27h-15.28c-.09,0-.18.03-.27.05-3.88-7.01-11.35-11.77-19.92-11.77s-16.04,4.76-19.92,11.78c-.1-.03-.2-.06-.3-.06h-10.08v-11.47c0-.65-.12-1.26-.32-1.84h61.06c2.78,0,5.04,2.26,5.04,5.04ZM57.42,33.05c11.44,0,20.75,9.31,20.75,20.75s-9.31,20.75-20.75,20.75-20.75-9.31-20.75-20.75,9.31-20.75,20.75-20.75ZM80.05,51.48c.92.68,1.51,1.75,1.51,2.95,0,1.28-.67,2.43-1.7,3.09.2-1.21.31-2.45.31-3.72,0-.78-.04-1.55-.12-2.32ZM80.8,26.51c.02-.07.06-.18.06-.26l5.63.04c0,.08,0,.15.03.22l.22.96h-6.16l.22-.96ZM43.14,22.39c.7-1.23,1.07-1.41,2.08-1.41h22.75c.69,0,1.54.25,2.64,2.17l2.77,4.3h-33.36l3.13-5.07ZM29.99,22.82c.5,1.26,1.31,3.27,1.93,4.65h-6.39c-.99-1-2.36-1.62-3.88-1.62h-9.27l1.15-1.86c.28.14.58.22.91.22h9.6c.91,0,1.68-.61,1.94-1.44h3.93s.07.02.09.06ZM14.44,17.77l9.63.04v4.36s-.02.04-.04.04l-9.63-.04.04-4.4ZM21.64,82.23h-11.06c-1.91,0-3.46-1.55-3.46-3.46V31.3c0-1.91,1.55-3.46,3.46-3.46h11.06c1.91,0,3.46,1.55,3.46,3.46v12.3c-.01.06-.03.11-.03.17s.02.11.03.17v34.83c0,1.91-1.55,3.46-3.46,3.46ZM87.85,79.52H27.05c.03-.25.06-.49.06-.75v-34h9.43c-1.2,2.77-1.87,5.82-1.87,9.03,0,12.54,10.21,22.75,22.75,22.75,10.43,0,19.24-7.06,21.91-16.65,2.46-.65,4.23-2.89,4.23-5.46s-1.6-4.6-3.89-5.36c-.32-1.49-.78-2.93-1.38-4.3h14.59v29.71c0,2.78-2.26,5.03-5.03,5.03Z"/>
  <path class="cls-1" d="M21.93,40.95c-.55,0-1,.45-1,1v36.74c0,.55.45,1,1,1s1-.45,1-1v-36.74c0-.55-.45-1-1-1Z"/>
  <path class="cls-1" d="M21.93,33.42c-.55,0-1,.45-1,1v4.06c0,.55.45,1,1,1s1-.45,1-1v-4.06c0-.55-.45-1-1-1Z"/>
  <path class="cls-1" d="M21.93,29.68c-.55,0-1,.45-1,1v.6c0,.55.45,1,1,1s1-.45,1-1v-.6c0-.55-.45-1-1-1Z"/>
</svg>