<!-- Generated by IcoMoon.io -->
<svg version="1.1" xmlns="http://www.w3.org/2000/svg" width="1024" height="1024" viewBox="0 0 1024 1024">
<title></title>
<g id="icomoon-ignore">
</g>
<path fill="#000" d="M621.256 802.466c135.039 0 244.9-109.859 244.9-244.889 0-135.045-109.862-244.906-244.9-244.906s-244.906 109.862-244.906 244.906c0 135.030 109.867 244.889 244.906 244.889zM621.256 353.364c112.603 0 204.208 91.611 204.208 204.213 0 112.591-91.605 204.196-204.208 204.196s-204.213-91.605-204.213-204.196c0-112.603 91.611-204.213 204.213-204.213z"></path>
<path fill="#000" d="M902.942 215.203h-39.876c-4.479-55.516-51.081-99.325-107.728-99.325h-268.177c-56.638 0-103.246 43.809-107.722 99.325h-41.623v-25.552c0-37.495-45.314-65.78-105.4-65.78s-105.394 28.281-105.394 65.78v25.552h-5.973c-66.742 0-121.049 54.307-121.049 121.058v450.805c0 66.751 54.307 121.055 121.055 121.055h781.887c66.751 0 121.055-54.307 121.055-121.055v-450.805c0.003-66.751-54.304-121.058-121.055-121.058zM40.693 336.261c0-44.311 36.048-80.362 80.362-80.362h279.228c5.866 0 11.44-2.526 15.306-6.938 3.86-4.412 5.636-10.275 4.86-16.088-0.453-3.433-0.666-6.255-0.666-8.903 0-37.161 30.223-67.399 67.381-67.399h268.177c37.155 0 67.387 30.235 67.387 67.399 0 2.622-0.215 5.456-0.669 8.915-0.773 5.81 1.006 11.67 4.871 16.079 3.86 4.406 9.435 6.932 15.3 6.932h60.716c44.314 0 80.362 36.051 80.362 80.362v450.805c0 44.314-36.048 80.362-80.362 80.362h-781.893c-44.314 0.003-80.362-36.048-80.362-80.362v-450.803zM167.721 189.651c0-8.845 24.564-25.087 64.701-25.087 40.143 0 64.707 16.242 64.707 25.087v23.436h-129.409v-23.436z"></path>
<path fill="#000" d="M159.199 824.879c36.684 0 66.524-29.845 66.524-66.533v-379.192c0-36.682-29.839-66.524-66.524-66.524s-66.535 29.842-66.535 66.524v379.192c0.003 36.687 29.851 66.533 66.535 66.533zM133.359 379.154c0-14.242 11.592-25.831 25.843-25.831 14.242 0 25.831 11.586 25.831 25.831v379.192c0 14.245-11.586 25.84-25.831 25.84-14.248 0-25.843-11.592-25.843-25.84v-379.192z"></path>
<path fill="#000" d="M621.256 734.361c97.479 0 176.781-79.304 176.781-176.784 0-97.491-79.301-176.798-176.781-176.798s-176.787 79.307-176.787 176.798c0 97.479 79.307 176.784 176.787 176.784zM621.256 421.472c75.037 0 136.088 61.057 136.088 136.105 0 75.037-61.051 136.091-136.088 136.091-75.043 0-136.094-61.054-136.094-136.091 0-75.049 61.051-136.105 136.094-136.105z"></path>
<path fill="#000" d="M889.944 413.4c36.368 0 65.954-29.587 65.954-65.957 0-36.368-29.589-65.954-65.954-65.954-36.368 0-65.954 29.589-65.954 65.954-0.003 36.373 29.587 65.957 65.954 65.957zM889.944 322.182c13.931 0 25.261 11.333 25.261 25.261 0 13.931-11.33 25.264-25.261 25.264s-25.261-11.333-25.261-25.264c-0.003-13.931 11.33-25.261 25.261-25.261z"></path>
</svg>
