<!-- Generated by IcoMoon.io -->
<svg version="1.1" xmlns="http://www.w3.org/2000/svg" width="1024" height="1024" viewBox="0 0 1024 1024">
<title></title>
<g id="icomoon-ignore">
</g>
<path fill="#000" d="M376.627 922.522c-1.664-0.009-3.246-0.346-4.689-0.952l0.081 0.030c-145.744-57.766-246.936-197.508-246.936-360.884 0-159.491 96.437-296.458 234.18-355.772l2.515-0.964c1.508-0.673 3.268-1.065 5.12-1.065 7.092 0 12.841 5.749 12.841 12.841 0 5.24-3.139 9.747-7.639 11.744l-0.082 0.032c-130.747 56.426-220.598 184.234-220.598 333.027 0 152.678 94.604 283.261 228.391 336.325l2.447 0.856c4.888 1.875 8.296 6.53 8.296 11.981 0 7.069-5.731 12.8-12.8 12.8-0.036 0-0.073 0-0.109 0h0.006z"></path>
<path fill="#000" d="M548.454 945.971c-6.917-0.195-12.451-5.849-12.451-12.795 0-6.513 4.864-11.89 11.158-12.696l0.064-0.007c183.92-18.573 326.276-172.586 326.276-359.847 0-108.666-47.936-206.135-123.816-272.416l-0.425-0.364c-2.335-2.319-3.781-5.532-3.781-9.083 0-7.069 5.731-12.8 12.8-12.8 2.938 0 5.644 0.99 7.805 2.654l-0.030-0.022c81.68 71.362 132.991 175.715 132.991 292.052 0 200.515-152.427 365.428-347.73 385.19l-1.632 0.134z"></path>
<path fill="#000" d="M886.272 566.374c-0.144 0.006-0.313 0.009-0.483 0.009-3.901 0-7.394-1.745-9.742-4.497l-0.015-0.018c-1.229-1.331-118.272-138.035-253.747-157.491-6.289-0.879-11.077-6.222-11.077-12.683 0-5.686 3.707-10.505 8.836-12.174l0.091-0.025s27.034-10.24 51.2-53.965c5.212-9.575 8.34-20.942 8.499-33.026l0.001-0.049c-25.925 3.203-49.332 11.74-69.85 24.486l0.73-0.422c-16.903 11.687-31.658 24.459-44.91 38.652l-0.146 0.158c-2.309 2.275-5.481 3.68-8.982 3.68-7.069 0-12.8-5.731-12.8-12.8 0-2.939 0.99-5.646 2.655-7.806l-0.022 0.030c14.741-15.998 31.011-30.187 48.7-42.477l0.964-0.634c39.014-26.624 92.774-29.696 95.027-29.901 0.199-0.011 0.431-0.017 0.665-0.017 6.169 0 11.319 4.364 12.53 10.174l0.014 0.083c0.752 4.623 1.182 9.951 1.182 15.38 0 17.023-4.226 33.060-11.686 47.118l0.264-0.545c-9.945 18.362-22.274 34.022-36.826 47.285l-0.14 0.126c131.277 34.816 234.189 154.829 238.899 160.358 1.81 2.191 2.907 5.028 2.907 8.122 0 3.868-1.715 7.335-4.427 9.682l-0.016 0.014c-2.192 1.964-5.102 3.167-8.293 3.174h-0.001z"></path>
<path fill="#000" d="M248.013 698.88c-0.532 0.021-1.157 0.032-1.784 0.032-12.815 0-24.491-4.873-33.277-12.868l0.040 0.036c-11.524-12.517-18.589-29.295-18.589-47.723 0-1.656 0.057-3.298 0.169-4.925l-0.012 0.22c0.507-21.797 6.131-42.171 15.712-60.114l-0.352 0.722c-6.758-8.806-7.68-21.606-2.867-39.219 27.546-101.478 241.459-184.32 281.19-199.168 1.024-3.379 2.15-7.373 2.867-10.752-2.048-1.843-5.939-4.71-10.24-7.68-7.27-5.427-17.101-12.698-30.72-23.962-30.72-24.371-63.181-68.403-64.717-102.4-0.105-1.037-0.165-2.24-0.165-3.458 0-9.904 3.972-18.881 10.41-25.423l-0.005 0.005c5.791-6.356 14.102-10.328 23.342-10.328 0.831 0 1.654 0.032 2.469 0.095l-0.108-0.007c19.354 1.946 33.69 22.938 48.845 45.056 8.351 13.496 17.724 25.181 28.337 35.608l0.027 0.027c0.435 0.323 0.983 0.517 1.577 0.517 0.058 0 0.115-0.002 0.172-0.005h-0.008c0.43-1.594 0.676-3.424 0.676-5.312 0-2.614-0.473-5.118-1.339-7.43l0.048 0.146c-5.811-25.002-9.503-53.952-10.23-83.637l-0.010-0.536c0-23.347 0.717-43.622 13.722-55.808 6.755-5.891 15.649-9.484 25.382-9.484 1.883 0 3.735 0.134 5.546 0.394l-0.207-0.024c8.763 0.793 16.373 5.158 21.454 11.608l0.050 0.066c12.8 15.155 17.715 43.93 14.029 81.101-2.56 25.293 2.56 33.894 4.813 36.454 1.874 2.001 4.532 3.248 7.481 3.248 0.431 0 0.856-0.027 1.273-0.078l-0.050 0.005c8.294 0 9.114-1.638 12.8-13.824l0.512-1.946c3.482-11.571 5.53-30.003 4.301-81.92-1.024-44.544 2.662-86.323 36.25-91.034 1.891-0.39 4.064-0.613 6.289-0.613 8.727 0 16.651 3.433 22.498 9.022l-0.012-0.012c18.227 17.408 18.739 58.368 15.974 89.6-3.174 35.123-3.482 40.038 0 51.2 2.253 8.090 7.27 9.523 11.162 9.114 10.050-2.033 17.51-10.795 17.51-21.299 0 0 0 0 0 0v0c0.717-5.734 1.229-10.24 1.638-15.462 1.555-17.895 4.344-34.228 8.346-50.078l-0.461 2.155c5.53-22.426 14.131-36.557 26.419-43.11 4.704-2.498 10.286-3.964 16.209-3.964 4.906 0 9.577 1.006 13.818 2.822l-0.229-0.087c32.051 11.571 21.094 54.17 13.722 82.432-0.922 3.584-2.15 7.475-3.379 11.469-2.593 6.313-4.221 13.628-4.502 21.287l-0.003 0.114 0.922 1.229c7.876-5.37 14.626-11.633 20.339-18.762l0.141-0.182 0.819-0.819c15.258-16.589 28.979-24.166 41.677-23.45 9.317 0.705 17.335 5.702 22.153 12.998l0.067 0.109c2.859 4.201 4.565 9.387 4.565 14.971 0 1.951-0.208 3.853-0.604 5.686l0.032-0.177c-3.277 19.661-23.142 43.008-57.446 67.379-53.862 37.99-158.618 78.234-163.021 79.77-1.575 0.746-3.422 1.182-5.371 1.182-7.069 0-12.8-5.731-12.8-12.8 0-5.734 3.77-10.587 8.967-12.216l0.091-0.025c1.024 0 106.086-40.96 157.286-77.107 48.845-34.714 47.104-52.531 47.104-52.736-0.642-0.769-1.524-1.318-2.531-1.531l-0.029-0.005c-0.819 0-7.27 0-21.299 15.155l-0.819 0.922c-13.005 14.029-26.317 28.57-42.291 27.238-8.799-0.83-16.261-5.881-20.412-13.082l-0.068-0.127c-7.987-12.288-2.765-28.57 1.741-42.803 1.126-3.584 2.15-6.963 3.072-10.24 4.301-16.896 12.39-48.23 2.253-52.019-1.315-0.659-2.865-1.045-4.506-1.045s-3.191 0.386-4.565 1.071l0.059-0.027c-2.458 1.331-8.704 6.554-13.619 26.624-3.035 12.748-5.327 27.873-6.401 43.334l-0.050 0.903c0 4.915-1.024 10.24-1.741 15.974-1.315 22.667-18.615 40.918-40.73 43.701l-0.23 0.024c-0.846 0.071-1.83 0.112-2.824 0.112-16.945 0-31.136-11.794-34.812-27.621l-0.047-0.241c-4.506-15.974-3.686-24.474 0-60.314 3.072-33.792 0-60.826-8.602-68.71-1.334-1.333-3.176-2.157-5.211-2.157-0.622 0-1.226 0.077-1.803 0.222l0.051-0.011c-3.891 0.614-15.667 2.253-14.234 65.126 1.331 56.218-1.024 75.776-5.427 90.419l-0.512 1.843c-3.584 11.981-9.523 32.154-37.274 32.154-0.348 0.012-0.757 0.019-1.168 0.019-10.457 0-19.874-4.453-26.458-11.566l-0.022-0.024c-10.24-11.366-14.029-29.798-11.366-56.218 3.482-34.509-1.946-54.682-8.090-62.054-1.028-1.347-2.535-2.284-4.263-2.555l-0.038-0.005c-0.891-0.189-1.915-0.297-2.965-0.297-3.050 0-5.887 0.913-8.252 2.482l0.055-0.034c-5.837 5.53-5.734 26.010-5.632 36.966 0.569 27.952 3.822 54.815 9.515 80.765l-0.504-2.736c6.758 26.419-5.222 37.274-10.24 40.96-3.988 2.449-8.818 3.899-13.986 3.899-6.764 0-12.948-2.484-17.689-6.59l0.034 0.029c-12.576-11.947-23.547-25.393-32.681-40.101l-0.497-0.859c-9.523-14.029-22.63-33.28-30.72-33.997-2.156 0.372-4.004 1.483-5.313 3.058l-0.012 0.014c-1.625 2.015-2.609 4.607-2.609 7.428 0 0.668 0.055 1.322 0.161 1.96l-0.009-0.069c1.024 21.811 26.317 59.904 55.194 83.251 13.517 10.957 23.245 18.125 30.72 23.347 14.541 10.752 22.528 16.691 20.48 29.798-1.757 9.063-3.952 16.894-6.702 24.458l0.353-1.111c-1.354 3.681-4.204 6.531-7.794 7.855l-0.091 0.029c-50.632 18.662-92.631 37.7-133.060 59.292l5.674-2.767c-83.251 44.237-133.12 88.269-143.36 127.386-1.284 3.489-2.026 7.519-2.026 11.722 0 1.571 0.104 3.118 0.305 4.635l-0.019-0.178c5.686 1.429 9.829 6.496 9.829 12.531 0 2.656-0.803 5.124-2.178 7.176l0.029-0.047c-10.162 15.983-16.527 35.274-17.4 55.985l-0.008 0.233c-0.119 1.251-0.187 2.705-0.187 4.176 0 11.187 3.934 21.455 10.494 29.496l-0.067-0.084c4.331 3.843 10.064 6.19 16.346 6.19 0.951 0 1.89-0.054 2.813-0.159l-0.113 0.010c25.17-2.933 47.129-14.792 63.004-32.275l0.074-0.083c2.304-3.294 6.080-5.421 10.352-5.421 2.81 0 5.404 0.92 7.499 2.475l-0.034-0.024c2.881 2.365 4.705 5.927 4.705 9.915 0 2.77-0.88 5.335-2.376 7.43l0.026-0.039c-20.468 23.844-49.526 39.809-82.323 43.069l-0.519 0.042zM227.533 557.466v0z"></path>
<path fill="#000" d="M756.019 843.059c-0.523 0.072-1.127 0.113-1.741 0.113s-1.218-0.041-1.81-0.12l0.069 0.008c-22.426-6.451-67.277-45.568-91.546-67.891-3.967 5.645-9.862 9.703-16.711 11.229l-0.185 0.035c-1.984 0.517-4.262 0.814-6.61 0.814-6.946 0-13.285-2.6-18.096-6.88l0.028 0.024c-7.475 20.48-15.258 34.202-29.082 34.202-11.878 0-21.709-11.366-29.184-24.986l-1.229 1.536c-2.271 2.908-5.707 4.816-9.594 5.016l-0.032 0.001c-0.235 0.016-0.51 0.025-0.787 0.025-3.77 0-7.15-1.67-9.44-4.31l-0.013-0.015-10.957-12.083c-11.37-13.15-18.296-30.417-18.296-49.301 0-2.652 0.137-5.273 0.403-7.854l-0.027 0.323c-11.793-5.76-20.29-16.691-22.594-29.757l-0.036-0.246c-1.448-5.221-2.28-11.216-2.28-17.405 0-9.427 1.93-18.404 5.417-26.555l-0.168 0.441c-6.265 1.423-13.459 2.238-20.844 2.238-8.342 0-16.44-1.040-24.174-2.998l0.679 0.146-6.042-1.024c-10.866 7.732-20.235 16.581-28.257 26.558l-0.21 0.27c-13.122 16.623-33.204 27.249-55.776 27.443h-0.032c-2.168 0.123-4.705 0.193-7.258 0.193-18.886 0-36.876-3.835-53.234-10.77l0.895 0.337c-4.363-2.102-7.32-6.489-7.32-11.567 0-7.069 5.731-12.8 12.8-12.8 1.715 0 3.351 0.337 4.845 0.949l-0.085-0.031c12.729 5.475 27.545 8.659 43.105 8.659 1.262 0 2.519-0.021 3.772-0.063l-0.182 0.005c22.63-2.253 29.286-7.475 39.014-18.637 13.517-15.667 32.256-34.611 44.954-35.738 0.317-0.007 0.691-0.010 1.066-0.010 4.453 0 8.782 0.526 12.93 1.52l-0.377-0.076c10.24 1.946 26.214 4.813 36.25 0 3.234-2.236 7.238-3.571 11.555-3.571 4.686 0 9.004 1.574 12.455 4.221l-0.049-0.036c10.24 8.704 6.451 24.883 3.482 33.792-0.225 0.684-0.467 1.259-0.75 1.811l0.033-0.071c-1.714 4.41-2.707 9.514-2.707 14.851 0 3.934 0.54 7.741 1.549 11.353l-0.071-0.296c2.662 10.24 7.168 13.722 10.24 13.312 0.807-0.187 1.734-0.294 2.685-0.294 3.642 0 6.917 1.571 9.184 4.073l0.009 0.010c2.052 2.233 3.309 5.224 3.309 8.509 0 1.425-0.237 2.795-0.673 4.072l0.026-0.089c-1.042 3.941-1.641 8.466-1.641 13.13 0 12.763 4.482 24.48 11.958 33.662l-0.077-0.097v0.614l4.71-6.246c2.362-3.071 6.038-5.030 10.172-5.030 5.417 0 10.047 3.364 11.916 8.117l0.030 0.087c3.719 9.817 8.236 18.295 13.669 26.088l-0.254-0.385c3.509-6.753 6.971-14.875 9.85-23.267l0.39-1.309c1.536-4.198 2.662-7.578 3.482-9.318 2.137-4.707 6.561-8.040 11.815-8.596l0.064-0.005c6.948 0.144 12.905 4.244 15.723 10.133l0.046 0.107c4.506 7.168 6.144 8.090 8.090 7.68s3.994-6.861 4.096-10.24c0.221-5.105 3.424-9.411 7.902-11.233l0.085-0.031c1.415-0.575 3.057-0.909 4.777-0.909 3.419 0 6.529 1.319 8.851 3.476l-0.008-0.007c27.75 26.522 78.029 70.349 95.437 75.264 5.369 1.602 9.216 6.496 9.216 12.288 0 7.069-5.731 12.8-12.8 12.8v0zM441.549 647.373v0z"></path>
<path fill="#000" d="M474.214 458.957c-6.963 0-12.288-7.782-12.288-18.022s5.325-17.92 12.288-17.92 12.186 7.68 12.186 17.92-5.12 18.022-12.186 18.022zM474.214 433.152c-0.937 2.296-1.528 4.955-1.637 7.738l-0.001 0.045c-0.027 0.286-0.042 0.619-0.042 0.955 0 2.643 0.944 5.064 2.514 6.947l-0.014-0.017c0.869-2.332 1.423-5.026 1.534-7.834l0.002-0.051c0.018-0.226 0.028-0.489 0.028-0.754 0-2.723-1.063-5.199-2.797-7.033l0.005 0.005z"></path>
<path fill="#000" d="M259.584 614.4c-0.040 0-0.087 0.001-0.135 0.001-2.585 0-5.010-0.684-7.104-1.881l0.070 0.037c-3.072-1.843-10.24-7.578-7.885-22.938 3.686-25.907 33.485-42.086 34.714-42.803 1.051-0.554 2.296-0.879 3.618-0.879 1.672 0 3.222 0.52 4.498 1.408l-0.026-0.017c1.978 1.408 3.253 3.693 3.253 6.276 0 0.387-0.029 0.767-0.084 1.139l0.005-0.042c-2.048 13.824-7.987 46.797-18.227 54.886-3.414 2.892-7.835 4.691-12.672 4.812l-0.026 0.001zM260.301 599.347v0zM271.77 571.392c-5.981 5.211-10.25 12.249-11.938 20.239l-0.043 0.241c-0.386 1.115-0.609 2.4-0.609 3.738s0.223 2.622 0.634 3.82l-0.025-0.083s1.024-0.512 2.56-1.741c4.487-7.548 7.783-16.366 9.359-25.767l0.062-0.447z"></path>
<path fill="#000" d="M520.090 920.781c-3.496 0.658-7.518 1.035-11.627 1.035-9.106 0-17.78-1.849-25.668-5.191l0.432 0.162c-8.444 8.934-19.335 15.471-31.601 18.541l-0.45 0.095c-2.988 0.52-6.429 0.818-9.94 0.818-11.993 0-23.176-3.471-32.598-9.464l0.247 0.147c-1.951-1.279-3.222-3.455-3.222-5.928 0-1.243 0.321-2.411 0.885-3.426l-0.018 0.036c3.028-5.085 6.894-9.344 11.455-12.718l0.116-0.082c-25.395-14.234-33.894-50.176-34.304-51.917-0.115-0.484-0.181-1.040-0.181-1.612 0-2.811 1.595-5.249 3.929-6.459l0.040-0.019c6.817-2.727 14.719-4.309 22.991-4.309 6.744 0 13.242 1.052 19.34 3l-0.449-0.124c-1.894-7.193-3.077-15.495-3.274-24.040l-0.002-0.127c0-23.142 19.558-47.718 20.48-49.152 1.354-2.058 3.653-3.397 6.265-3.397 1.474 0 2.848 0.426 4.005 1.163l-0.030-0.018c1.229 1.024 29.594 15.258 38.502 36.557 2.859 6.61 5.203 14.341 6.659 22.38l0.099 0.66c10.376-9.108 23.85-14.913 38.658-15.661l0.152-0.006c3.355 0.177 6.095 2.603 6.75 5.79l0.008 0.047c0 1.843 7.066 38.093-10.24 61.44 6.008 1.373 11.293 3.821 15.896 7.153l-0.126-0.087c1.673 1.344 2.736 3.389 2.736 5.683 0 1.423-0.409 2.75-1.115 3.871l0.018-0.030c-8.154 12.13-20.23 21.080-34.383 25.086l-0.433 0.105zM479.846 901.12c0.487-0.126 1.047-0.198 1.623-0.198 1.251 0 2.422 0.34 3.426 0.932l-0.032-0.017c6.959 3.515 15.17 5.573 23.861 5.573 2.964 0 5.872-0.239 8.705-0.7l-0.31 0.042c8.152-2.15 15.109-6.451 20.453-12.258l0.027-0.030c-4.426-1.597-9.616-2.854-14.984-3.544l-0.376-0.040c-3.147-0.195-5.723-2.424-6.441-5.379l-0.010-0.048c-0.158-0.554-0.25-1.19-0.25-1.847 0-2.498 1.316-4.689 3.292-5.918l0.030-0.017c17.818-11.469 17.408-38.707 16.282-51.2-13.073 3.888-24.191 10.999-32.822 20.426l-0.049 0.054c-1.33 1.415-3.213 2.296-5.302 2.296-1.006 0-1.964-0.204-2.835-0.573l0.048 0.018c-2.616-1.171-4.406-3.751-4.406-6.75 0-0.075 0.001-0.15 0.003-0.224v0.011c-0.191-11.668-2.734-22.692-7.175-32.688l0.212 0.534c-4.813-11.571-17.306-16.486-27.238-25.088-5.837 12.595-15.258 22.221-15.258 34.714 0.108 11.634 2.546 22.67 6.867 32.704l-0.211-0.55c0.507 0.958 0.804 2.093 0.804 3.298 0 1.894-0.734 3.616-1.934 4.898l0.004-0.004c-1.359 1.394-3.256 2.259-5.355 2.259-0.984 0-1.925-0.19-2.785-0.536l0.050 0.018c-8.613-3.858-18.668-6.105-29.247-6.105-3.226 0-6.404 0.209-9.52 0.614l0.368-0.039c3.891 11.776 14.643 36.762 35.533 39.936 3.469 0.593 6.076 3.578 6.076 7.172 0 2.712-1.484 5.076-3.685 6.326l-0.036 0.019c-5.097 2.741-9.497 5.834-13.485 9.38l0.071-0.062c4.928 2.152 10.671 3.404 16.706 3.404 2.6 0 5.146-0.232 7.618-0.678l-0.26 0.039c11.095-3.022 20.469-9.211 27.372-17.525l0.071-0.088c1.094-1.365 2.671-2.303 4.469-2.556l0.037-0.004z"></path>
<path fill="#000" d="M441.139 939.008c-12.505-0.335-24.064-4.106-33.848-10.397l0.261 0.157c-2.618-1.879-4.304-4.915-4.304-8.344 0-1.542 0.341-3.003 0.951-4.315l-0.026 0.063c2.503-4.463 5.685-8.232 9.453-11.311l0.070-0.055c-23.347-15.462-31.539-47.923-32.358-51.2-0.164-0.666-0.259-1.43-0.259-2.216 0-3.77 2.167-7.033 5.323-8.613l0.056-0.025c7.174-3.138 15.533-4.964 24.32-4.964 5.402 0 10.642 0.69 15.638 1.987l-0.431-0.095c-1.296-6.055-2.143-13.102-2.351-20.309l-0.004-0.171c1.419-19.038 8.93-36.092 20.567-49.459l-0.087 0.102 0.717-1.024c1.375-2.425 3.72-4.165 6.494-4.701l0.060-0.010c0.633-0.139 1.36-0.219 2.106-0.219 2.203 0 4.243 0.695 5.913 1.879l-0.032-0.021 1.126 0.614c16.486 8.11 29.63 20.891 37.973 36.61l0.222 0.459c2.377 5.478 4.49 11.977 6.002 18.704l0.142 0.752c10.081-8.236 22.995-13.352 37.091-13.72l0.080-0.002c4.469 0.388 8.091 3.594 9.1 7.815l0.014 0.070c0.819 3.891 6.554 36.762-8.602 60.416 5.089 1.448 9.525 3.694 13.414 6.628l-0.102-0.074c2.152 1.887 3.504 4.642 3.504 7.712 0 1.872-0.502 3.627-1.38 5.137l0.026-0.049c-8.652 12.662-21.456 21.936-36.419 25.909l-0.445 0.101c-3.693 0.719-7.939 1.13-12.281 1.13-8.809 0-17.223-1.693-24.934-4.772l0.454 0.16c-8.578 8.661-19.479 15.007-31.69 18.028l-0.464 0.097c-3.295 0.899-7.094 1.454-11.010 1.535l-0.049 0.001zM408.166 843.059c-0.369-0.012-0.803-0.018-1.238-0.018-6.621 0-12.887 1.518-18.47 4.224l0.252-0.11c-1.532 0.77-2.565 2.33-2.565 4.13 0 0.351 0.039 0.692 0.113 1.020l-0.006-0.031c0 1.536 8.806 36.659 33.075 50.278l3.379 1.843-3.072 2.355c-4.409 3.245-8.041 7.269-10.754 11.898l-0.1 0.185c-0.341 0.62-0.542 1.358-0.542 2.143 0 1.587 0.821 2.983 2.061 3.785l0.018 0.011c8.754 5.556 19.415 8.854 30.847 8.854 3.318 0 6.572-0.278 9.738-0.812l-0.342 0.048c12.201-3.024 22.647-9.314 30.689-17.886l0.031-0.034 1.229-1.229 1.536 0.717c7.159 3.025 15.483 4.784 24.217 4.784 3.963 0 7.842-0.362 11.604-1.055l-0.391 0.060c14.039-3.67 25.691-12.158 33.355-23.552l0.13-0.205c0.483-0.707 0.772-1.581 0.772-2.522 0-1.421-0.657-2.687-1.684-3.513l-0.009-0.007c-4.201-3.078-9.189-5.359-14.595-6.509l-0.253-0.045-3.686-1.229 2.355-3.072c16.589-22.323 10.24-57.856 10.24-59.29-0.385-2.093-2.143-3.675-4.289-3.788h-0.011c-14.501 0.62-27.596 6.174-37.758 15.014l0.075-0.063-3.379 2.662-0.717-4.301c-1.507-8.467-3.781-15.992-6.815-23.116l0.261 0.69c-3.482-8.294-12.493-20.48-36.045-34.509l-1.638-1.024c-0.792-0.569-1.781-0.91-2.849-0.91-0.332 0-0.657 0.033-0.971 0.096l0.031-0.005c-1.368 0.257-2.503 1.089-3.163 2.231l-0.012 0.022-1.126 1.638c-15.974 21.914-19.149 37.274-18.944 46.182 0.238 8.362 1.382 16.343 3.338 23.998l-0.163-0.753 1.024 4.096-4.096-1.024c-5.993-1.499-12.874-2.358-19.955-2.358-0.257 0-0.513 0.001-0.769 0.003h0.039zM441.037 924.979c-6.486-0.102-12.63-1.447-18.243-3.807l0.323 0.12-3.277-1.946 3.072-2.765c4.084-3.515 8.644-6.705 13.509-9.412l0.417-0.213c1.422-0.829 2.362-2.346 2.362-4.083 0-2.278-1.617-4.178-3.765-4.616l-0.030-0.005c-22.528-3.482-33.894-30.72-37.683-41.677l-0.922-2.765 2.765-0.614c2.793-0.354 6.025-0.555 9.305-0.555 11.105 0 21.67 2.314 31.238 6.486l-0.504-0.196c0.53 0.224 1.146 0.355 1.793 0.355 1.35 0 2.568-0.568 3.427-1.479l0.002-0.002c0.778-0.823 1.256-1.937 1.256-3.162 0-0.792-0.2-1.537-0.551-2.187l0.012 0.024c-4.529-9.768-7.261-21.179-7.474-33.204l-0.001-0.076c0.601-9.366 3.932-17.853 9.196-24.792l-0.083 0.114c2.048-3.379 4.096-6.861 5.837-10.24l1.434-3.072 2.56 2.15c2.827 2.453 5.934 4.811 9.19 6.961l0.333 0.207c7.813 4.301 14.069 10.589 18.211 18.194l0.119 0.238c4.364 9.763 6.983 21.141 7.167 33.11l0.001 0.068c-0.004 0.076-0.007 0.165-0.007 0.254 0 2.545 2.063 4.608 4.608 4.608 1.337 0 2.542-0.57 3.383-1.48l0.003-0.003c9.139-9.787 20.71-17.19 33.753-21.254l0.551-0.148h2.765v2.765c1.126 11.981 1.741 40.96-17.51 53.453-1.299 0.83-2.147 2.264-2.147 3.896 0 2.472 1.946 4.489 4.39 4.603h0.010c6.102 0.492 11.745 1.618 17.132 3.323l-0.543-0.148 3.891 1.331-2.867 2.867c-5.803 6.26-13.321 10.854-21.806 13.039l-0.313 0.068c-2.629 0.433-5.658 0.681-8.745 0.681-9.244 0-17.97-2.219-25.674-6.154l0.32 0.148c-0.457-0.167-0.985-0.264-1.536-0.264s-1.079 0.097-1.568 0.274l0.032-0.010c-1.151 0.193-2.124 0.831-2.756 1.728l-0.009 0.013c-7.327 8.901-17.244 15.43-28.592 18.447l-0.387 0.087c-1.514 0.249-3.259 0.391-5.038 0.391-0.822 0-1.636-0.030-2.443-0.090l0.108 0.006zM429.261 918.016c3.501 1.152 7.531 1.816 11.716 1.816 2.373 0 4.697-0.214 6.952-0.623l-0.236 0.036c10.5-2.873 19.359-8.778 25.836-16.704l0.071-0.090c1.427-1.769 3.402-3.045 5.665-3.57l0.069-0.014c0.581-0.117 1.249-0.184 1.933-0.184 1.767 0 3.429 0.447 4.879 1.235l-0.054-0.027c6.674 3.348 14.542 5.308 22.868 5.308 2.771 0 5.492-0.217 8.146-0.635l-0.294 0.038c6.133-1.765 11.403-4.881 15.677-9.021l-0.010 0.009c-2.919-0.771-6.406-1.386-9.974-1.721l-0.266-0.020c-4.757-0.946-8.293-5.087-8.293-10.053 0-3.154 1.426-5.975 3.669-7.854l0.016-0.013c15.462-10.24 16.179-33.485 15.36-45.67-11.552 4.315-21.336 11.037-29.131 19.601l-0.053 0.059c-1.781 1.537-4.118 2.473-6.674 2.473-5.445 0-9.897-4.249-10.221-9.613l-0.001-0.029c-0.269-11.163-2.729-21.684-6.965-31.243l0.207 0.523c-3.853-7.073-9.473-12.758-16.278-16.583l-0.209-0.108c-2.879-1.847-5.316-3.6-7.659-5.466l0.184 0.142c-1.536 2.765-3.072 5.427-4.71 7.987-4.495 5.877-7.487 13.125-8.28 21.022l-0.014 0.175c0.042 11.119 2.412 21.673 6.648 31.216l-0.196-0.496c0.421 1.078 0.665 2.325 0.665 3.63 0 5.655-4.585 10.24-10.24 10.24-1.078 0-2.117-0.167-3.093-0.475l0.073 0.020c-8.719-3.837-18.883-6.070-29.57-6.070-1.558 0-3.104 0.047-4.638 0.141l0.211-0.010c4.301 11.571 14.438 32.666 32.563 35.533 4.197 0.592 7.494 3.819 8.184 7.931l0.008 0.056c0.055 0.397 0.086 0.856 0.086 1.323 0 3.805-2.075 7.125-5.156 8.891l-0.050 0.026c-3.609 2.161-6.684 4.29-9.613 6.597l0.192-0.146z"></path>
<path fill="#000" d="M481.533 908.627l0.1-0.021c3.872-0.822 7.678 1.65 8.501 5.523l8.339 39.265c0.822 3.872-1.65 7.678-5.523 8.501l-0.1 0.021c-3.872 0.822-7.678-1.65-8.501-5.523l-8.339-39.265c-0.822-3.872 1.65-7.678 5.523-8.501z"></path>
<path fill="#000" d="M491.52 964.71c-4.611-0.195-8.42-3.411-9.508-7.712l-0.015-0.071-8.294-39.219c-0.085-0.496-0.134-1.066-0.134-1.648 0-4.757 3.244-8.756 7.64-9.907l0.071-0.016c0.562-0.109 1.208-0.172 1.868-0.172 2.043 0 3.947 0.599 5.545 1.63l-0.040-0.024c2.128 1.392 3.653 3.554 4.187 6.081l0.011 0.063 8.294 39.219c0.161 0.641 0.254 1.377 0.254 2.135 0 1.918-0.593 3.698-1.605 5.166l0.020-0.031c-1.358 2.185-3.53 3.754-6.083 4.29l-0.061 0.011zM483.021 911.36h-1.024c-1.207 0.309-2.208 1.043-2.856 2.030l-0.011 0.018c-0.473 0.67-0.755 1.503-0.755 2.403 0 0.384 0.051 0.755 0.148 1.108l-0.007-0.029 8.294 39.219c0.489 2.12 2.36 3.677 4.596 3.677 0.331 0 0.653-0.034 0.964-0.099l-0.031 0.005c1.207-0.309 2.208-1.043 2.856-2.030l0.011-0.018c0.473-0.67 0.755-1.503 0.755-2.403 0-0.384-0.051-0.755-0.148-1.108l0.007 0.029-8.294-39.219c-0.202-1.225-0.924-2.25-1.927-2.857l-0.018-0.010c-0.709-0.45-1.573-0.717-2.498-0.717-0.022 0-0.043 0-0.065 0h0.003z"></path>
</svg>
