<!-- Generated by IcoMoon.io -->
<svg version="1.1" xmlns="http://www.w3.org/2000/svg" width="1024" height="1024" viewBox="0 0 1024 1024">
<title></title>
<g id="icomoon-ignore">
</g>
<path fill="#000" d="M512 899.072c-187.392 0-340.992-152.576-340.992-340.992s153.6-339.968 340.992-339.968 340.992 152.576 340.992 340.992-153.6 339.968-340.992 339.968zM512 248.832c-171.008 0-310.272 139.264-310.272 310.272s139.264 309.248 310.272 309.248 310.272-139.264 310.272-310.272-139.264-309.248-310.272-309.248zM512 844.8c-157.696 0-285.696-128-285.696-285.696s128-286.72 285.696-286.72c157.696 0 285.696 128 285.696 285.696s-128 286.72-285.696 286.72zM512 303.104c-141.312 0-254.976 114.688-254.976 254.976s114.688 256 254.976 256 254.976-114.688 254.976-254.976-113.664-256-254.976-256zM616.448 691.2c-5.12 0-9.216-1.024-14.336-4.096l-132.096-75.776c-4.096-2.048-8.192-6.144-10.24-10.24l-75.776-132.096c-6.144-11.264-5.12-24.576 4.096-33.792s22.528-11.264 33.792-4.096l132.096 75.776c4.096 2.048 8.192 6.144 10.24 10.24l75.776 132.096c6.144 11.264 5.12 24.576-4.096 33.792-5.12 5.12-12.288 8.192-19.456 8.192zM485.376 584.704l122.88 70.656-70.656-122.88-122.88-70.656 70.656 122.88zM512 248.832c-33.792 0-62.464-27.648-62.464-62.464s27.648-62.464 62.464-62.464c33.792 0 62.464 27.648 62.464 62.464s-28.672 62.464-62.464 62.464zM512 155.648c-17.408 0-31.744 14.336-31.744 31.744s14.336 31.744 31.744 31.744c17.408 0 31.744-14.336 31.744-31.744s-14.336-31.744-31.744-31.744zM746.496 559.104c0-8.192-7.168-15.36-15.36-15.36h-36.864c-8.192 0-15.36 7.168-15.36 15.36s7.168 15.36 15.36 15.36h36.864c8.192 0 15.36-7.168 15.36-15.36zM545.792 352.256c0-8.192-7.168-15.36-15.36-15.36h-36.864c-8.192 0-15.36 7.168-15.36 15.36s7.168 15.36 15.36 15.36h36.864c8.192 0 15.36-7.168 15.36-15.36zM545.792 765.952c0-8.192-7.168-15.36-15.36-15.36h-36.864c-8.192 0-15.36 7.168-15.36 15.36s7.168 15.36 15.36 15.36h36.864c8.192 0 15.36-7.168 15.36-15.36zM352.256 559.104c0-8.192-7.168-15.36-15.36-15.36h-36.864c-8.192 0-15.36 7.168-15.36 15.36s7.168 15.36 15.36 15.36h36.864c8.192 0 15.36-7.168 15.36-15.36z"></path>
</svg>
