<!-- Generated by IcoMoon.io -->
<svg version="1.1" xmlns="http://www.w3.org/2000/svg" width="1020" height="1024" viewBox="0 0 1020 1024">
<title></title>
<g id="icomoon-ignore">
</g>
<path fill="#000" d="M920.834 212.189c-2.872-3.8-7.382-6.23-12.46-6.23-8.602 0-15.575 6.973-15.575 15.575 0 3.524 1.17 6.774 3.143 9.384l-0.028-0.039c58.041 78.221 92.911 176.661 92.911 283.246 0 55.902-9.592 109.564-27.221 159.43l1.031-3.347h-159.484l-33.33-63.669 22.49 0.748c0.129 0.005 0.281 0.008 0.433 0.008 4.411 0 8.287-2.293 10.501-5.751l0.030-0.050c1.232-1.899 1.964-4.221 1.964-6.715 0-2.099-0.519-4.077-1.436-5.813l0.033 0.068c-12.391-25.278-25.715-57.347-37.329-90.223l-2.106-6.838c-14.108-40.707-27.851-73.637-43.259-105.613l2.578 5.935c-1.744-3.426-4.672-10.778-7.476-18.067 2.25 0.082 4.384 0.418 6.425 0.98l-0.196-0.046c1.808 1.081 3.989 1.721 6.319 1.721 6.881 0 12.46-5.578 12.46-12.46 0-1.488-0.261-2.915-0.739-4.237l0.027 0.087c-31.358-83.846-65.050-154.715-103.92-222.225l3.807 7.171c-2.194-3.751-6.203-6.23-10.79-6.23-0.017 0-0.035 0-0.052 0h0.003c-0.015 0-0.032 0-0.049 0-4.588 0-8.596 2.479-10.759 6.171l-0.032 0.059c0 0.436-24.919 44.045-52.518 96.563-20.309-39.248-42.55-79.804-65.725-119.488-2.751-4.653-7.743-7.725-13.452-7.725-0.002 0-0.003 0-0.005 0v0c-0.082-0.002-0.179-0.002-0.276-0.002-5.608 0-10.524 2.964-13.266 7.411l-0.039 0.067c-3.987 6.977-97.684 171.944-128.584 258.726-0.543 1.524-0.856 3.282-0.856 5.113 0 8.533 6.808 15.477 15.289 15.694h0.020c3.774 0.272 7.21 0.737 10.574 1.397l-0.544-0.089-6.23 11.899c-13.768 27.99-28.502 63.371-41.32 99.658l-2.289 7.434c-14.648 42.411-28.878 76.662-44.82 109.936l2.707-6.271c-0.989 1.989-1.567 4.331-1.567 6.809 0 8.602 6.973 15.575 15.575 15.575 0.266 0 0.531-0.007 0.794-0.020l-0.037 0.001 20.247-0.685-11.774 22.49h-243.338c-16.542-46.459-26.102-100.049-26.102-155.871 0-264.242 214.21-478.452 478.452-478.452 0.087 0 0.174 0 0.262 0h-0.014c0.427-0.001 0.933-0.002 1.439-0.002 78.141 0 151.862 18.93 216.825 52.454l-2.649-1.242c2.028 1.035 4.424 1.642 6.961 1.642 8.602 0 15.575-6.973 15.575-15.575 0-6.002-3.395-11.212-8.37-13.812l-0.086-0.041c-66.412-34.402-144.978-54.576-228.257-54.576-0.506 0-1.011 0.001-1.516 0.002h0.079c-281.401 0.195-509.446 228.36-509.446 509.788 0 281.548 228.24 509.788 509.788 509.788s509.788-228.24 509.788-509.788c0-113.573-37.139-218.471-99.936-303.213l0.975 1.377zM583.799 262.027c17.88-34.513 35.199-66.099 45.914-85.411 26.627 47.127 53.662 103.827 77.019 162.393l3.471 9.862c-4.61 0-9.033 0-12.46 0-6.543 0.416-11.693 5.825-11.693 12.436 0 1.505 0.267 2.948 0.756 4.284l-0.028-0.087c1.059 2.866 10.217 28.47 14.952 37.691 12.388 25.275 25.712 57.343 37.328 90.219l2.107 6.842c10.342 28.097 20.995 57.003 31.71 80.988l-23.424-0.81c-0.129-0.005-0.281-0.008-0.433-0.008-4.411 0-8.287 2.293-10.501 5.751l-0.030 0.050c-1.211 1.887-1.93 4.19-1.93 6.661 0 2.121 0.53 4.118 1.464 5.866l-0.033-0.067 59.433 114.567-101.36-0.374-34.202-65.351 20.247 0.685c0.124 0.004 0.271 0.006 0.417 0.006 5.546 0 10.426-2.853 13.251-7.172l0.037-0.060c1.513-2.358 2.411-5.236 2.411-8.324 0-2.602-0.638-5.056-1.767-7.212l0.041 0.086c-13.236-27.002-27.465-61.253-39.867-96.367l-2.247-7.298c-15.107-43.72-29.84-79.102-46.369-113.457l2.76 6.366c-1.869-3.613-5.171-11.899-8.41-20.372 1.432-0.248 3.080-0.39 4.762-0.39 0.341 0 0.68 0.006 1.019 0.017l-0.049-0.001c2.002 1.004 4.362 1.592 6.86 1.592 8.602 0 15.575-6.973 15.575-15.575 0-2.267-0.484-4.42-1.355-6.363l0.040 0.099c-13.643-32.52-30.589-68.84-49.839-106.966 1.874-1.19 3.375-2.811 4.391-4.729l0.033-0.068zM352.422 638.248c1.116-2.093 1.772-4.577 1.772-7.214 0-3.077-0.892-5.945-2.432-8.361l0.038 0.063c-2.843-4.413-7.732-7.294-13.294-7.294-0.145 0-0.289 0.002-0.433 0.006h0.021l-21.493 0.748c10.965-24.919 21.929-54.698 32.52-83.542 14.655-42.42 28.884-76.671 44.824-109.946l-2.711 6.281c4.797-9.407 15.325-30.090 15.325-30.090 1.061-2.049 1.684-4.474 1.684-7.043 0-7.298-5.019-13.423-11.793-15.112l-0.107-0.023c-5.794-1.433-10.778-2.492-15.014-3.364 26.788-66.597 80.988-166.773 105.907-211.815 40.494 70.397 77.188 142.29 103.976 203.093q-6.23 1.308-13.955 3.613c-6.538 1.946-11.224 7.903-11.224 14.955 0 1.852 0.323 3.629 0.916 5.276l-0.034-0.109c1.121 3.115 10.965 30.651 16.073 40.619 13.23 26.994 27.459 61.244 39.864 96.357l2.25 7.308c10.653 28.844 21.555 58.436 32.52 83.542l-21.493-0.748c-0.16-0.006-0.348-0.009-0.537-0.009-8.602 0-15.575 6.973-15.575 15.575 0 2.646 0.66 5.138 1.824 7.32l-0.041-0.084 62.298 119.115-105.907-0.436h-181.912l-105.907 0.436zM509.913 992.913c-199.101-0.323-369.728-121.893-442.017-294.807l-1.174-3.167h220.91l-37.379 70.896c-1.12 2.096-1.778 4.584-1.778 7.227 0 8.592 6.957 15.558 15.544 15.575h0.002l153.379-0.498v115.19c0 8.602 6.973 15.575 15.575 15.575s15.575-6.973 15.575-15.575v0-115.314h61.8v115.314c0 8.602 6.973 15.575 15.575 15.575s15.575-6.973 15.575-15.575v0-115.314h47.471v61.675c0 6.881 5.578 12.46 12.46 12.46s12.46-5.578 12.46-12.46v0-61.551h46.973v61.364c0 6.881 5.578 12.46 12.46 12.46s12.46-5.578 12.46-12.46v0-61.302h24.546c8.589-0.016 15.546-6.983 15.546-15.575 0-2.642-0.658-5.131-1.819-7.311l0.041 0.084-14.64-27.972 108.898 0.436c6.88-0.002 12.456-5.58 12.456-12.46 0-2.119-0.529-4.114-1.462-5.861l0.033 0.067-13.145-24.919h137.057c-73.432 176.215-244.162 297.885-443.343 298.16h-0.035z"></path>
<path fill="#000" d="M727.085 184.403c-4.215 2.057-7.068 6.312-7.068 11.233 0 4.699 2.601 8.791 6.443 10.913l0.064 0.032c15.162 8.392 33.244 13.332 52.479 13.332 60.727 0 109.957-49.229 109.957-109.957s-49.229-109.957-109.957-109.957c-0.096 0-0.192 0-0.288 0h-5.779c-6.583 0.37-11.781 5.799-11.781 12.441 0 2.966 1.036 5.69 2.767 7.829l-0.018-0.024c14.818 18.078 23.799 41.436 23.799 66.892 0 0.159 0 0.318-0.001 0.477v-0.025c-0.056 42.318-24.478 78.919-59.988 96.53l-0.629 0.282zM812.808 87.716c-0.013-22.167-5.473-43.055-15.112-61.404l0.347 0.726c37.705 9.253 65.239 42.761 65.239 82.701 0 46.965-38.073 85.037-85.037 85.037-6.226 0-12.296-0.669-18.142-1.939l0.561 0.102c31.722-24.463 51.997-62.428 52.144-105.136v-0.024z"></path>
<path fill="#000" d="M211.815 382.077l-19.313-35.199c-2.158-3.893-6.243-6.484-10.933-6.484s-8.775 2.591-10.901 6.421l-0.032 0.064-19.25 35.199-35.199 19.25c-3.893 2.158-6.484 6.243-6.484 10.933s2.591 8.775 6.421 10.901l0.064 0.032 35.199 19.126 19.25 35.199c2.158 3.893 6.243 6.484 10.933 6.484s8.775-2.591 10.901-6.421l0.032-0.064 19.313-35.199 35.199-19.25c3.893-2.158 6.484-6.243 6.484-10.933s-2.591-8.775-6.421-10.901l-0.064-0.032zM196.676 422.321c-2.092 1.177-3.769 2.874-4.889 4.919l-0.033 0.065-10.092 18.69-10.092-18.69c-1.152-2.11-2.829-3.807-4.859-4.952l-0.062-0.032-18.69-10.092 18.69-10.092c2.092-1.177 3.769-2.874 4.889-4.919l0.033-0.065 10.092-18.69 10.092 18.69c1.152 2.11 2.829 3.807 4.859 4.952l0.062 0.032 18.69 10.092z"></path>
<path fill="#000" d="M274.113 286.573c2.158 3.893 6.243 6.484 10.933 6.484s8.775-2.591 10.901-6.421l0.032-0.064 19.25-35.199 35.199-19.25c3.893-2.158 6.484-6.243 6.484-10.933s-2.591-8.775-6.421-10.901l-0.064-0.032-35.323-19.001-19.25-35.51c-2.175-3.83-6.226-6.372-10.871-6.372s-8.696 2.542-10.839 6.31l-0.032 0.062-19.375 35.51-35.199 19.25c-3.893 2.158-6.484 6.243-6.484 10.933s2.591 8.775 6.421 10.901l0.064 0.032 35.199 19.25zM270.002 211.13c2.092-1.177 3.769-2.874 4.889-4.919l0.033-0.065 10.092-18.69 10.092 18.69c1.152 2.11 2.829 3.807 4.859 4.952l0.062 0.032 18.69 10.092-18.69 10.092c-2.092 1.177-3.769 2.874-4.889 4.919l-0.033 0.065-10.092 18.69-10.092-18.69c-1.152-2.11-2.829-3.807-4.859-4.952l-0.062-0.032-18.69-10.092z"></path>
</svg>
