<!-- Generated by IcoMoon.io -->
<svg version="1.1" xmlns="http://www.w3.org/2000/svg" width="1024" height="1024" viewBox="0 0 1024 1024">
<title></title>
<g id="icomoon-ignore">
</g>
<path fill="#000" d="M757.228 555.206h-15.208v48.146c-126.636-7.878-227.254-113.386-227.254-241.97v-361.382h-514.766v1024h1024v-202.022c0-147.1-119.674-266.772-266.772-266.772zM30.416 535.342c145.936 7.914 262.216 129.14 262.216 277.014v53.37h-262.216v-330.384zM90.324 993.584h-59.908v-33.512h59.91v33.512zM120.74 993.584v-33.512h59.91v33.512h-59.91zM270.976 993.584h-59.91v-33.512h59.91v33.512zM361.304 993.584h-59.91v-33.512h59.91v33.512zM451.628 993.584h-59.908v-33.512h59.91v33.512zM541.956 993.584h-59.912v-33.512h59.912v33.512zM632.28 993.584h-59.91v-33.512h59.91v33.512zM722.608 993.584h-59.91v-33.512h59.91v33.512zM812.932 993.584h-59.91v-33.512h59.91v33.512zM903.26 993.584h-59.91v-33.512h59.91v33.512zM993.584 993.584h-59.91v-33.512h59.91v33.512zM993.584 929.656h-963.168v-33.514h416.142v-30.416h-123.51v-53.37c0-164.646-129.926-299.508-292.632-307.464v-474.476h453.934v173.298h-96.168v-31.358h-30.416v93.128h30.416v-31.354h96.168v112.046h-96.168v-31.356h-30.416v93.128h30.416v-31.356h96.602c1.444 26.144 6.576 51.32 14.898 75.010l-89.228 36.96-11.998-28.968-28.1 11.64 35.638 86.038 28.1-11.64-12-28.97 89.276-36.98c11.196 23.17 25.566 44.526 42.552 63.5l-68.402 68.402-22.172-22.172-21.508 21.508 65.85 65.85 21.506-21.508-22.172-22.172 68.404-68.404c18.974 16.984 40.33 31.356 63.498 42.552l-36.982 89.278-28.968-11.998-11.64 28.098 86.038 35.638 11.64-28.098-28.968-12 36.966-89.242c23.692 8.324 48.86 13.482 75.006 14.926v231.882h-254.904v30.416h506.472v33.518zM993.584 865.724h-221.148v-279.618c123.27 7.864 221.148 110.652 221.148 235.872v43.746z"></path>
<path fill="#000" d="M822.92 626.78l-9.724 28.82c70.778 23.878 118.82 90.046 119.546 164.65l30.414-0.296c-0.85-87.532-57.206-165.162-140.236-193.174z"></path>
<path fill="#000" d="M80.034 573.976l-7.988 29.348c94.062 25.602 159.756 111.56 159.756 209.032v7.746h30.416v-7.746c0-111.16-74.918-209.186-182.184-238.38z"></path>
<path fill="#000" d="M76.040 60.832h105.442v30.416h-105.442v-30.416z"></path>
<path fill="#000" d="M76.040 121.664h105.442v30.416h-105.442v-30.416z"></path>
<path fill="#000" d="M222.036 60.832h216.682v30.416h-216.682v-30.416z"></path>
</svg>
