<?xml version="1.0" encoding="UTF-8"?>
<svg id="Layer_1" data-name="Layer 1" xmlns="http://www.w3.org/2000/svg" width="100" height="100" viewBox="0 0 100 100">
  <defs>
    <style>
      .cls-1 {
        fill: #000;
        strokeWidth: 0px;
      }
    </style>
  </defs>
  <path class="cls-1" d="M92.57,45.42h0s0-.07-.02-.2c-.02-.2-.03-.39-.05-.57-.09-1.37-.18-4.47.5-8.6.39-2.38.44-4.22-.57-5.47-.09-.12-.2-.21-.31-.31.06-.82.32-1.64.55-2.36.35-1.09.66-2.03.17-2.82-.19-.3-.57-.68-1.33-.79-1.78-.25-2.55-.39-2.92-.46-.46-.09-.6-.11-1.02-.02-.44.09-1.57.32-2.07,4.92-.27-.01-.54-.03-.83-.05l-.33-.02c-5.54-.29-9.73-4.9-10.76-6.13.27-1.99.55-3.83.73-4.95h0c.2-1.36-.09-2.48-.85-3.34-1.91-2.14-6.37-1.99-10.68-1.85h-.27c-2.04.08-3.46.61-4.47,1.69-2.09,2.24-2.05,6.63-1.8,13.6,0,.21,0,.43,0,.64l-1.71-.41c-.53-.12-1.08.2-1.21.74-.13.54.2,1.08.74,1.21l1.94.46c-.37,1.82-1.13,3.63-2.11,5.36l-3.72-.89c-.53-.13-1.08.2-1.21.74-.13.54.2,1.08.74,1.21l3.09.74c-1.13,1.71-2.4,3.29-3.59,4.63-.23.26-.47.52-.71.78l-2.48-.59c-.53-.13-1.08.2-1.21.74-.13.54.2,1.08.74,1.21l1.33.32c-1.66,1.65-3.28,3.06-4.66,4.13l-3.14-.75c-.54-.13-1.08.2-1.21.74-.13.54.2,1.08.74,1.21l1.45.35c-.3.19-.57.35-.79.47-3.14,1.62-4.24,1.37-14.76-.98l-.67-.15c-8.54-1.91-14.73,4.01-16.39,8.83-1.52,4.41-.26,10.13-.05,11.02l.29,10.13.32.29c.12.11,3.01,2.65,9.67,4.78,12.71,4.06,29.84,2.3,33.29,1.2,1.1-.35,1.57-2.05,1.77-3.66,1.84-.52,10.27-.23,11.86.09.26.28.4,1,.52,1.64.18.91.38,1.93,1.03,2.68.33.38.93,1.06,8.34,1.06.52,0,1.06,0,1.65-.01,4.73-.06,9.68-.36,11.77-.73,3.97-.69,5.06-4.05,5.08-5.75l-.05-5.28c.05-4.23.21-22.12-.4-30.49ZM88.16,25.79s.04,0,.06.01c.37.07,1.13.22,2.86.46-.06.28-.19.7-.3,1.02-.19.58-.4,1.26-.54,1.99-.75-.2-1.64-.33-2.72-.42.16-1.35.42-2.58.65-3.07ZM84.24,30.67l.34.02c3.38.18,5.62.29,6.3,1.14.45.56.5,1.76.15,3.89-.25,1.54-.41,2.95-.49,4.18-2.13-1.1-6.08-.94-10.57-.61-1.34.1-2.49.19-3.18.16-2.78-.1-3.41-3.6-3.82-7.17-.04-.33-.07-.64-.11-.92-.14-1.02.08-3.53.4-6.21,2.03,2.06,5.95,5.25,10.98,5.51ZM9.37,59.09c1.41-4.1,6.69-9.13,14-7.53.58.24,4.92,2.2,7.64,7.95l.16.33c.25.51.64,1.29.98,2.34.14.42.53.69.95.69.1,0,.21-.02.31-.05.53-.17.81-.73.64-1.26-.39-1.2-.83-2.09-1.09-2.62l-.14-.29c-1.25-2.65-2.81-4.58-4.26-5.95,6.78,1.45,8.47,1.46,11.65-.18.52-.27,1.39-.84,2.45-1.63l4.81,1.14c.08.02.16.03.23.03.45,0,.86-.31.97-.77.13-.54-.2-1.08-.74-1.21l-3.27-.78c1.39-1.16,2.95-2.57,4.5-4.17l5.24,1.25c.08.02.16.03.23.03.45,0,.86-.31.97-.77.13-.54-.2-1.08-.74-1.21l-4.14-.98c1.5-1.69,2.94-3.52,4.15-5.45l3.67.87c.08.02.16.03.23.03.45,0,.86-.31.97-.77.13-.54-.2-1.08-.74-1.21l-3.09-.73c.94-1.76,1.66-3.57,2.03-5.38l4.94,1.18c.08.02.16.03.23.03.45,0,.86-.31.97-.77.13-.54-.2-1.08-.74-1.21l-5.14-1.22c.02-.4.03-.79.02-1.19-.23-6.48-.26-10.54,1.26-12.17.62-.67,1.6-1,3.07-1.05h.27c3.67-.13,7.83-.27,9.12,1.17.23.25.51.71.37,1.7-.19,1.21-1.84,11.56-1.46,14.36.04.26.07.56.11.88.35,3.06,1,8.76,5.73,8.94.8.03,2.01-.06,3.41-.16,2.8-.21,9.34-.69,10.02.85.12.28.23.94.33,1.88.04,1.03.12,1.62.13,1.68h0c.14,2.11.24,4.98.3,8.21-.96-.04-2.71.08-5.16,1.04-.51.2-.77.78-.57,1.3.15.39.53.64.93.64.12,0,.25-.02.37-.07,2.25-.88,3.8-.93,4.47-.9.08,4.75.09,10.05.07,14.83-3.92,2.9-12.38,2.87-17.5,2.54-.28-3.91.7-7.3,2.95-10.07.35-.43.28-1.06-.15-1.41-.43-.35-1.06-.28-1.41.15-2.52,3.11-3.66,6.87-3.41,11.18-1.01-.09-1.73-.18-2.02-.22-1.18-.52-8.47-3.44-17.91.03-3.03,1.11-10.02,1.39-16.64,1.04.02-.76,0-1.89-.06-3.62-.02-.55-.47-1-1.03-.97-.55.02-.99.48-.97,1.03.05,1.92.06,2.92.06,3.44-2.91-.21-5.67-.53-7.87-.96-9.7-1.89-14.42-3.72-15.77-4.29-.3-1.45-1.11-6.08.08-9.53ZM87.59,84.97c-.98.17-2.47.32-4.19.43v-4.6c0-.55-.45-1-1-1s-1,.45-1,1v4.72c-2.05.1-4.27.16-6.33.17,0,0,0,0,0,0v-4.88c0-.55-.45-1-1-1s-1,.45-1,1v4.87c-2.66-.04-4.79-.18-5.44-.45-.25-.36-.38-1.02-.51-1.67-.21-1.09-.46-2.32-1.46-2.99-.87-.58-12.15-1.06-14.07-.03-.69.37-.77.94-.76,1.07-.1.97-.36,2.06-.57,2.39-.97.28-3.12.62-5.97.87v-4.57c0-.55-.45-1-1-1s-1,.45-1,1v4.72c-2.24.14-4.78.21-7.46.15.02-.09.05-.17.05-.26v-4.88c0-.55-.45-1-1-1s-1,.45-1,1v4.88c0,.07.03.13.04.2-2.45-.11-4.98-.34-7.47-.72,0-.04.02-.07.02-.1v-4.88c0-.55-.45-1-1-1s-1,.45-1,1v4.64c-1.76-.34-3.49-.76-5.14-1.28-.56-.18-1.08-.36-1.58-.54v-4.67c0-.55-.45-1-1-1s-1,.45-1,1v3.88c-2.76-1.18-4.4-2.29-5.04-2.77l-.22-7.79c2.18.84,6.9,2.4,15.21,4.02,3.81.74,9.95,1.26,15.65,1.26,4.85,0,9.4-.37,11.93-1.31,9.27-3.41,16.43-.07,16.5-.04l.3.09c.65.09,14.87,2,21.94-1.77,0,.97-.02,1.91-.03,2.81l.05,5.27c0,.33-.17,3.22-3.42,3.78Z"/>
  <path class="cls-1" d="M78.51,60.88c.2,0,.4-.06.57-.18q2.07-1.45,3.72-2.18c.51-.22.73-.82.51-1.32-.22-.5-.82-.73-1.32-.51-1.83.81-1.87.84-4.06,2.37-.45.32-.56.94-.25,1.39.19.28.51.43.82.43Z"/>
  <path class="cls-1" d="M33.93,67.93s.03,0,.04,0c.55-.02.98-.49.96-1.04-.01-.25-.07-1.51-.16-2-.1-.54-.63-.91-1.17-.8-.54.1-.9.62-.8,1.17.05.26.1,1.16.13,1.72.02.54.47.96,1,.96Z"/>
</svg>