<!-- Generated by IcoMoon.io -->
<svg version="1.1" xmlns="http://www.w3.org/2000/svg" width="957" height="1024" viewBox="0 0 957 1024">
<title></title>
<g id="icomoon-ignore">
</g>
<path fill="#000" d="M722.493 133.977c-2.079-1.205-4.574-1.917-7.235-1.917-8.071 0-14.614 6.543-14.614 14.614 0 5.232 2.749 9.821 6.881 12.403l0.062 0.036c132.372 80.049 219.613 223.034 220.080 386.431v0.068c0 0.084 0 0.184 0 0.284 0 61.581-12.463 120.252-35.003 173.627l1.1-2.933c-8.827-23.382-18.764-47.816-29.87-75.231q-10.756-26.655-22.505-56.116l38.58-0.351c2.475-0.019 4.763-0.804 6.642-2.129l-0.037 0.025c12.127-8.566 19.95-22.526 19.95-38.313 0-25.827-20.937-46.763-46.763-46.763-0.541 0-1.079 0.009-1.615 0.027l0.078-0.002c-5.911-38.165-38.505-67.047-77.855-67.105h-1.526l-168.991-421.455c-2.107-5.182-6.959-8.838-12.703-9.175l-0.040-0.002c-0.222-0.012-0.483-0.019-0.744-0.019-5.535 0-10.36 3.041-12.896 7.544l-0.038 0.074c-0.701 1.344-69.444 127.722-135.204 213.708-16.601-14.146-37.586-30.279-57.987-46.003-7.891-5.845-15.549-11.691-22.622-17.536-2.773-2.173-6.311-3.484-10.156-3.484-1.438 0-2.833 0.184-4.164 0.528l0.115-0.025c-7.19 1.754-18.062 4.384-77.51 110.186-4.793 8.593-9.996 17.887-15.432 27.824-24.247 0.621-45.702 12.062-59.794 29.655l-0.121 0.156q-2.104-0.701-4.267-1.286c-3.874-1.041-8.323-1.639-12.911-1.639-23.201 0-42.831 15.291-49.362 36.345l-0.098 0.366c-25.318 0.654-45.593 21.334-45.593 46.749 0 22.074 15.294 40.575 35.864 45.486l0.318 0.064c0.892 0.252 1.917 0.401 2.977 0.409h0.005l50.563-0.409c-48.049 93.527-93.527 186.001-122.754 248.021-16.614-45.009-26.225-96.993-26.225-151.221 0-248.033 201.070-449.103 449.103-449.103 0.095 0 0.191 0 0.286 0h-0.015c8.071 0 14.614-6.543 14.614-14.614s-6.543-14.614-14.614-14.614v0c-264.004 0.141-477.966 214.19-477.966 478.213 0 264.11 214.103 478.213 478.213 478.213s478.213-214.103 478.213-478.213c0-174.162-93.102-326.579-232.252-410.195l-2.162-1.205zM835.895 509.954v1.461c-0.003 0.106-0.005 0.23-0.005 0.354 0 6.457 5.234 11.691 11.691 11.691 1.494 0 2.922-0.28 4.235-0.791l-0.080 0.027c2.483-0.98 5.359-1.548 8.367-1.548 12.913 0 23.382 10.468 23.382 23.382 0 6.742-2.854 12.818-7.419 17.085l-0.013 0.012-228.497 1.987c-9.417-3.164-16.081-11.91-16.081-22.213 0-12.913 10.468-23.382 23.382-23.382 0.002 0 0.004 0 0.006 0v0c0.031 0 0.068 0 0.104 0 1.66 0 3.279 0.17 4.843 0.495l-0.154-0.027c0.709 0.153 1.524 0.24 2.359 0.24 6.212 0 11.293-4.845 11.669-10.963l0.002-0.033c0.117-1.947 0.408-3.765 0.862-5.518l-0.044 0.199c3.255-12.332 14.31-21.277 27.454-21.277 5.382 0 10.414 1.5 14.7 4.104l-0.126-0.071c1.746 1.094 3.868 1.743 6.142 1.743 4.253 0 7.975-2.271 10.021-5.666l0.029-0.053c9.694-16.408 27.29-27.24 47.416-27.24 0.079 0 0.157 0 0.236 0h-0.012c0.018 0 0.040 0 0.061 0 30.637 0 55.473 24.836 55.473 55.473 0 0.185-0.001 0.37-0.003 0.554v-0.028zM357.915 187.404l14.438 11.34c24.025 18.472 51.206 39.398 67.865 54.772 2.603 2.43 6.108 3.922 9.963 3.922 4.716 0 8.91-2.234 11.582-5.7l0.025-0.034c52.024-65.352 106.62-158.177 132.34-203.187l110.011 274.384c-10.931 10.814-27.883 27.707-38.638 39.457-12.275-13.912-35.365-43.899-54.713-70.145-2.123-2.882-5.486-4.744-9.286-4.793h-0.008c-0.044-0.001-0.095-0.001-0.147-0.001-3.76 0-7.106 1.775-9.245 4.534l-0.020 0.027-116.441 151.221-83.005-70.554c-2.043-1.79-4.737-2.881-7.686-2.881-4.119 0-7.741 2.13-9.823 5.349l-0.028 0.046c-30.104 45.828-64.3 95.573-79.615 115.389-12.334-17.536-36.826-51.381-61.611-84.057l-0.643-0.701c54.83-104.458 104.808-194.477 124.683-218.385zM129.125 425.722c-9.303-3.228-15.862-11.918-15.862-22.14 0-12.913 10.468-23.382 23.382-23.382 1.621 0 3.203 0.165 4.731 0.479l-0.151-0.026c0.709 0.153 1.524 0.24 2.359 0.24 6.212 0 11.293-4.845 11.669-10.963l0.002-0.033c0.118-1.948 0.41-3.766 0.862-5.52l-0.044 0.2c3.254-12.333 14.31-21.279 27.454-21.279 5.502 0 10.638 1.567 14.986 4.28l-0.12-0.070c1.746 1.094 3.868 1.743 6.142 1.743 4.253 0 7.975-2.271 10.021-5.666l0.029-0.053c7.083-11.951 18.244-20.851 31.527-24.859l0.389-0.101c-11.34 21.043-23.966 44.834-38.054 71.723q-9.119 17.536-18.179 35.072zM478.447 994.831c-179.859-0.214-334.964-105.971-406.732-258.658l-1.162-2.749c35.072-75.99 94.52-196.055 150.929-304.722 32.559 43.256 62.897 86.395 63.189 86.863 2.143 3.021 5.626 4.969 9.565 4.969 0.008 0 0.015 0 0.023 0h-0.001c7.424 0 13.328 0 93.527-121.409l82.245 70.145c2.023 1.722 4.667 2.769 7.555 2.769 3.769 0 7.122-1.784 9.26-4.554l0.020-0.027 114.453-148.883c17.536 23.382 47.816 63.481 58.454 70.788 1.851 1.286 4.146 2.055 6.62 2.055 3.943 0 7.429-1.952 9.547-4.941l0.024-0.036c3.741-5.319 21.336-23.382 37.703-39.69l36.3 90.545c-12.491 5.3-22.951 13.266-31.040 23.234l-0.116 0.147c-1.403-0.468-2.806-0.935-4.267-1.286-3.874-1.041-8.323-1.639-12.911-1.639-23.201 0-42.831 15.291-49.362 36.345l-0.098 0.366c-24.69 1.409-44.177 21.775-44.177 46.692 0 21.561 14.591 39.714 34.438 45.122l0.328 0.076c0.892 0.252 1.917 0.401 2.977 0.409h0.005l164.315-1.403c9.294 23.382 18.238 45.828 26.714 66.813 14.672 36.3 27.298 67.69 37.995 97.034 0.527 1.384 1.197 2.581 2.014 3.661l-0.026-0.036c-76.535 144.763-226.072 241.765-398.283 241.942h-0.024z"></path>
</svg>
