<!-- Generated by IcoMoon.io -->
<svg version="1.1" xmlns="http://www.w3.org/2000/svg" width="1024" height="1024" viewBox="0 0 1024 1024">
<title></title>
<g id="icomoon-ignore">
</g>
<path fill="#000" d="M829.259 110.101c-2.569-1.924-5.809-3.080-9.319-3.080-8.637 0-15.639 7.002-15.639 15.639 0 4.789 2.153 9.075 5.543 11.944l0.023 0.019c111.779 88.746 182.823 224.624 182.823 377.096 0 93.058-26.464 179.935-72.277 253.515l1.181-2.035c-10.053 10.994-22.878 19.292-37.373 23.799l-0.6 0.161c-32.467 9.947-75.569 9.947-101.843-13.95 52.298-57.177 75.069-141.067 62.557-232.275-18.454-135.687-90.082-239.219-201.685-291.642-129.681-60.743-294.582-45.98-430.394 38.473-51.797 32.28-117.17 86.579-174.159 143.882 39.856-228.908 237.044-400.731 474.363-400.731 43.753 0 86.142 5.84 126.43 16.784l-3.371-0.78c1.361 0.429 2.927 0.677 4.55 0.677 8.637 0 15.639-7.002 15.639-15.639 0-7.412-5.156-13.619-12.077-15.232l-0.106-0.021c-39.757-11.075-85.41-17.441-132.55-17.441-282.994 0-512.407 229.412-512.407 512.407s229.412 512.407 512.407 512.407c282.994 0 512.407-229.412 512.407-512.407 0-162.249-75.409-306.885-193.091-400.772l-1.032-0.796zM31.279 512.031c0-9.634 0.375-19.205 0.938-28.714 60.993-66.123 137.939-132.309 196.555-168.905 125.115-77.946 282.384-92.335 400.804-36.659 71.941 33.781 162.211 107.661 183.981 267.557 11.698 85.766-10.76 163.775-61.556 214.008-37.847 37.534-88.644 55.613-135.812 48.67-30.239-3.861-57.412-14.465-80.793-30.258l0.657 0.418c19.129 7.916 41.342 12.513 64.63 12.513 0.283 0 0.566-0.001 0.849-0.002h-0.044c8.302-0.008 16.463-0.576 24.457-1.669l-0.936 0.105c42.96-5.538 80.219-26.461 106.734-56.97l0.176-0.207c30.778-36.158 47.106-86.454 47.106-145.446 0-146.134-91.021-252.231-243.473-283.822-187.672-38.973-384.102 163.65-494.953 304.779-5.928-28.333-9.322-60.89-9.322-94.241 0-0.408 0.001-0.815 0.002-1.223v0.063zM468.179 750.687c7.511 12.338 15.906 23.022 25.41 32.604l-0.012-0.012c-58.929 31.279-132.872-17.954-151.701-77.884-2.084-6.511-8.083-11.143-15.164-11.143-5.622 0-10.562 2.92-13.387 7.326l-0.038 0.063c-23.084 32.53-55.426 76.633-99.466 65.122 20.769-127.367 105.659-236.779 199.433-283.822 76.508-38.348 147.823-30.716 195.679 21.019 32.029 34.594 57.365 103.783 44.353 159.771-6.114 31.023-27.717 55.881-56.251 66.486l-0.614 0.2c-66.186 25.398-123.613-60.305-124.176-61.181-2.833-4.307-7.643-7.111-13.109-7.111-8.637 0-15.639 7.002-15.639 15.639 0 0.367 0.013 0.731 0.037 1.091l-0.003-0.049c3.077 26.935 11.846 51.308 25.078 72.622l-0.43-0.744zM48.232 638.084c104.533-136.437 300.275-349.195 482.379-311.473 142.068 29.464 223.517 123.989 223.517 259.3 0 118.859-68.438 169.968-132.496 178.351-5.802 0.794-12.507 1.248-19.318 1.248-5.27 0-10.476-0.272-15.606-0.801l0.643 0.054c7.679-1.304 14.49-3.216 20.989-5.752l-0.72 0.247c38.782-14.558 67.579-47.538 75.997-87.991l0.135-0.778c14.013-60.18-8.258-141.004-51.86-188.11-57.177-61.744-143.882-72.129-232.713-27.713-67.937 34.469-130.182 97.402-170.844 173.033-31.869 57.193-50.632 125.459-50.632 198.107 0 11.409 0.463 22.711 1.371 33.886l-0.096-1.469c-61.016-58.697-106.496-133.119-129.934-216.753l-0.81-3.386zM511.969 992.471c-0.096 0-0.209 0-0.323 0-112.672 0-216.244-38.963-297.977-104.151l0.965 0.743c-3.628-19.080-5.703-41.026-5.703-63.457 0-9.723 0.39-19.355 1.155-28.882l-0.081 1.255c46.48 11.26 84.202-21.895 113.041-57.865 37.534 69.188 126.178 108.975 195.617 63.808 26.336 17.884 57.825 30.256 91.804 34.727l1.094 0.118c51.61 7.569 104.408-8.383 147.51-43.79 31.279 30.591 80.136 33.969 121.424 25.023-88.591 105.812-220.714 172.646-368.45 172.721h-0.013z"></path>
<path fill="#000" d="M677.308 85.015c7.196-5.391 16.273-8.633 26.107-8.633 0.059 0 0.118 0 0.176 0h-0.009c0.062 0 0.135 0 0.209 0 21.343 0 39.179 15.011 43.528 35.052l0.053 0.294c0.184 0.841 0.421 1.572 0.719 2.271l-0.031-0.082v0.313c0.282 0.658 0.575 1.213 0.906 1.741l-0.031-0.052 0.438 0.563c0.329 0.467 0.657 0.875 1.010 1.261l-0.009-0.010 0.626 0.626 1.063 0.876 0.813 0.5 1.189 0.688 0.813 0.375 1.564 0.5h0.5c0.356 0.036 0.77 0.057 1.189 0.057s0.832-0.021 1.24-0.061l-0.052 0.004c0.356 0.036 0.77 0.057 1.189 0.057s0.832-0.021 1.24-0.061l-0.052 0.004h0.438l1.626-0.5 0.813-0.375 1.251-0.688 0.751-0.5 1.063-0.938 0.626-0.563c0.344-0.376 0.672-0.784 0.975-1.212l0.026-0.039 0.375-0.563c0.325-0.497 0.639-1.072 0.907-1.672l0.032-0.079c0.268-0.617 0.504-1.349 0.673-2.106l0.016-0.083c4.402-20.334 22.239-35.345 43.581-35.345 0.073 0 0.147 0 0.22 0.001h-0.011c0.050 0 0.108 0 0.167 0 9.834 0 18.911 3.242 26.221 8.715l-0.114-0.082c2.104 1.661 4.794 2.665 7.718 2.665 6.91 0 12.511-5.602 12.511-12.511 0-4.252-2.121-8.009-5.363-10.27l-0.041-0.027c-11.293-8.439-25.53-13.513-40.952-13.513-0.074 0-0.148 0-0.222 0h0.011c-22.75 0.058-42.93 11.007-55.609 27.908l-0.13 0.18c-12.808-17.081-32.989-28.030-55.729-28.088h-0.009c-0.062 0-0.136 0-0.21 0-15.422 0-29.659 5.073-41.133 13.642l0.181-0.129c-2.93 2.311-4.793 5.862-4.793 9.847 0 6.91 5.602 12.511 12.511 12.511 2.658 0 5.122-0.829 7.148-2.242l-0.041 0.027z"></path>
<path fill="#000" d="M666.861 134.248c-16.857 0.105-31.792 8.236-41.192 20.76l-0.096 0.134c-9.52-12.691-24.509-20.831-41.403-20.894h-0.010c-0.050 0-0.11 0-0.169 0-11.452 0-22.027 3.757-30.558 10.107l0.136-0.097c-2.103 1.722-3.435 4.32-3.435 7.228 0 5.148 4.173 9.321 9.321 9.321 1.908 0 3.681-0.573 5.158-1.556l-0.034 0.021c5.325-3.91 12.010-6.257 19.243-6.257 0.119 0 0.237 0.001 0.355 0.002h-0.018c15.836 0.045 29.058 11.186 32.302 26.055l0.040 0.219c0.133 0.624 0.306 1.168 0.523 1.688l-0.023-0.062c0.221 0.485 0.451 0.896 0.709 1.285l-0.021-0.034v0.438l0.751 0.938 0.438 0.438 0.813 0.688 0.563 0.375 0.876 0.5h0.626l1.189 0.375h2.127c0.263 0.027 0.567 0.042 0.876 0.042s0.613-0.015 0.914-0.045l-0.038 0.003h0.313l1.189-0.375h0.563l0.938-0.5 0.563-0.375 0.813-0.688 0.438-0.438 0.751-0.938v-0.375c0.24-0.372 0.47-0.804 0.665-1.254l0.023-0.059c0.195-0.458 0.368-1.002 0.489-1.565l0.011-0.061c3.284-15.088 16.506-26.229 32.337-26.274h0.005c0.094-0.001 0.206-0.002 0.317-0.002 7.24 0 13.931 2.347 19.355 6.322l-0.092-0.064c1.591 1.303 3.646 2.093 5.886 2.093 5.148 0 9.321-4.173 9.321-9.321 0-3.24-1.653-6.094-4.163-7.765l-0.034-0.021c-8.193-6.104-18.47-9.834-29.611-10.009l-0.041-0.001z"></path>
</svg>
