<?xml version="1.0" encoding="UTF-8"?>
<svg id="Layer_1" data-name="Layer 1" xmlns="http://www.w3.org/2000/svg" width="100" height="100" viewBox="0 0 100 100">
  <defs>
    <style>
      .cls-1 {
        fill: #000;
        strokeWidth: 0px;
      }
    </style>
  </defs>
  <path class="cls-1" d="M98.21,84.96h-5.19l-21.72-41.57,9.41-.08,5.83-.04c.21,0,.4-.07.55-.18,1.01-.71,1.66-1.88,1.66-3.19,0-2.15-1.75-3.9-3.9-3.9-.05,0-.09,0-.13,0h0c-.49-3.18-3.21-5.59-6.49-5.6,0,0-.4-.04-1.09.12-.77.18-1.45.44-1.45.44-1.04.44-1.91,1.11-2.59,1.94h0c-.12-.03-.23-.07-.36-.09-.32-.09-.69-.14-1.08-.14-1.93,0-3.57,1.28-4.12,3.03v.03c-.09,0-.16.03-.23.03l-6.06-11.6c-.17-.33-.51-.53-.88-.54h0c-.37,0-.71.2-.88.53l-9.77,18.16-3.84-4.08c-.2-.21-.47-.32-.78-.31-.29.01-.57.16-.74.39l-7.01,9.13-1.92-2.96c-.19-.29-.53-.46-.85-.46-.34,0-.66.18-.84.47l-7.24,11.71s-.02.03-.03.04c0,0,0,0,0,.01l-3.81,6.16-4.22.45c-.33.04-.62.23-.78.53l-11.4,21.57H1.79c-.55,0-1,.45-1,1s.45,1,1,1h96.43c.55,0,1-.45,1-1s-.45-1-1-1ZM67.77,37.69h0c.14,0,.27.01.4.04h-.01c.06.01.13.02.2.02.52,0,.94-.4.97-.91h0c0-.16.03-.31.07-.45,0,0,0,0,0,0v-.02s0,0,0,.01c.27-1.03,1.19-1.77,2.29-1.77.45,0,.87.13,1.23.34h-.01c.15.09.32.14.51.14.35,0,.67-.19.84-.47h0c.81-1.37,2.28-2.28,3.95-2.28h.02c2.55,0,4.63,2.07,4.63,4.63,0,.02,0,.03,0,.05v.12s0,.02,0,.03c0,.54.44.97.97.97.12,0,.24-.02.35-.07h0c.21-.08.45-.13.7-.13,1.08,0,1.95.87,1.95,1.95,0,.56-.24,1.07-.62,1.42h0s-19.06.17-19.06.17c-.79-.26-1.34-.99-1.34-1.85,0-1.08.87-1.95,1.95-1.95h0ZM60.35,26.76l5.09,9.74c-.96.71-1.58,1.85-1.58,3.13,0,1.8,1.22,3.31,2.87,3.76h.03c.07.03.16.04.25.04h0l2.05-.02,4.86,9.3-1.48,1.59c-.38.4-.35,1.04.05,1.41.19.18.44.27.68.27.27,0,.54-.11.73-.32l.99-1.07,15.87,30.36H29.06l18.52-34.43,4.04,5.32c.16.22.41.35.67.39.27.03.54-.04.75-.21l2.79-2.24,1.79,2.11c.26.3.67.43,1.05.31l2.01-.61,6.15,6.16c.19.19.44.29.71.29h.02c.27,0,.53-.12.71-.32l.86-.93c.38-.4.35-1.04-.05-1.41-.4-.38-1.04-.35-1.41.05l-.16.17-5.84-5.85c-.26-.26-.64-.36-1-.25l-1.96.59-2-2.35c-.35-.41-.96-.47-1.39-.13l-2.75,2.21-3.71-4.89c-.08-.11-.19-.2-.3-.26l11.78-21.91ZM34.61,46.89l1.83,2.83c.18.27.47.44.8.45.32.02.63-.13.83-.39l7.15-9.32,3.49,3.71-7.83,14.55-4.88-2.93c-.34-.21-.78-.19-1.1.05l-2.63,1.9-3.44-1.53,5.76-9.32ZM19.19,64.79l4.18-.45c.31-.03.58-.21.74-.47l3.68-5.95,4.21,1.88c.32.15.71.11.99-.1l2.56-1.85,4.4,2.64-13.16,24.47H8.52l10.66-20.16Z"/>
  <path class="cls-1" d="M70.46,58.89c.27,0,.54-.11.73-.32l.53-.57c.38-.4.35-1.04-.05-1.41-.4-.38-1.04-.35-1.41.05l-.53.57c-.38.4-.35,1.04.05,1.41.19.18.44.27.68.27Z"/>
  <path class="cls-1" d="M23.83,31.82c3.28,0,5.95-2.67,5.95-5.95s-2.67-5.95-5.95-5.95-5.95,2.67-5.95,5.95,2.67,5.95,5.95,5.95ZM23.83,21.93c2.18,0,3.95,1.77,3.95,3.95s-1.77,3.95-3.95,3.95-3.95-1.77-3.95-3.95,1.77-3.95,3.95-3.95Z"/>
  <path class="cls-1" d="M22.83,34.95v2.76c0,.55.45,1,1,1s1-.45,1-1v-2.76c0-.55-.45-1-1-1s-1,.45-1,1Z"/>
  <path class="cls-1" d="M16.71,31.59l-1.74,1.74h0s-.21.21-.21.21c-.2.2-.29.45-.29.71s.1.51.29.71.45.29.71.29.51-.1.71-.29l1.95-1.95c.39-.39.39-1.02,0-1.41-.39-.39-1.02-.39-1.41,0Z"/>
  <path class="cls-1" d="M12,26.88h2.76c.55,0,1-.45,1-1s-.45-1-1-1h-2.76c-.55,0-1,.45-1,1s.45,1,1,1Z"/>
  <path class="cls-1" d="M14.76,18.22l.19.19.02.02h0s1.74,1.74,1.74,1.74c.2.2.45.29.71.29s.51-.1.71-.29c.39-.39.39-1.02,0-1.41l-.98-.98-.19-.19-.78-.78-.02.02c-.58-.48-.91-.51-1.39-.02-.29.29-.5.76.01,1.41h-.01Z"/>
  <path class="cls-1" d="M23.83,17.8c.55,0,1-.45,1-1v-2.76c0-.55-.45-1-1-1s-1,.45-1,1v2.76c0,.55.45,1,1,1Z"/>
  <path class="cls-1" d="M30.25,20.46c.26,0,.51-.1.71-.29l1.74-1.74.02-.02.19-.19h-.01c.52-.65.3-1.13.01-1.42-.48-.48-.82-.46-1.39.02l-.02-.02-.78.78c-.06.06-.12.12-.19.19l-.98.98c-.39.39-.39,1.02,0,1.41.2.2.45.29.71.29Z"/>
  <path class="cls-1" d="M31.9,25.88c0,.55.45,1,1,1h2.76c.55,0,1-.45,1-1s-.45-1-1-1h-2.76c-.55,0-1,.45-1,1Z"/>
  <path class="cls-1" d="M29.54,31.59c-.39.39-.39,1.02,0,1.41l1.95,1.95c.2.2.45.29.71.29s.51-.1.71-.29.29-.45.29-.71-.1-.51-.29-.71l-1.95-1.95h0c-.39-.39-1.02-.39-1.41,0Z"/>
  <path class="cls-1" d="M48.54,57.14c-.49-.26-1.09-.07-1.35.42l-11.92,22.56c-.26.49-.07,1.09.42,1.35.15.08.31.12.47.12.36,0,.71-.19.88-.53l11.92-22.56c.26-.49.07-1.09-.42-1.35Z"/>
  <path class="cls-1" d="M21.9,68.42c-.49-.26-1.09-.08-1.35.41l-6.49,12.14c-.26.49-.08,1.09.41,1.35.15.08.31.12.47.12.36,0,.7-.19.88-.53l6.49-12.14c.26-.49.08-1.09-.41-1.35Z"/>
</svg>