<!-- Generated by IcoMoon.io -->
<svg version="1.1" xmlns="http://www.w3.org/2000/svg" width="993" height="1024" viewBox="0 0 993 1024">
<title></title>
<g id="icomoon-ignore">
</g>
<path fill="#000" d="M993.297 527.412c0-0.146 0-0.319 0-0.492 0-188.989-105.69-353.294-261.188-437.032l-2.64-1.299c-1.772-0.785-3.839-1.243-6.013-1.243-8.378 0-15.169 6.792-15.169 15.169 0 5.338 2.757 10.032 6.925 12.736l0.059 0.036c148.466 79.739 247.707 233.936 247.707 411.311 0 19.125-1.154 37.98-3.395 56.5l0.22-2.23c-45.578-9.93-100.226-17.648-155.934-21.516l-3.71-0.207v-130.093c-0.009-7.451-2.517-14.313-6.731-19.797l0.057 0.077-119.535-155.881c-2.967-3.809-6.673-6.895-10.921-9.077l-0.184-0.086-17.050-8.616v-68.141h40.472l-10.255 9.769c-1.163 1.108-1.886 2.669-1.886 4.399 0 3.354 2.719 6.073 6.073 6.073 1.624 0 3.1-0.638 4.189-1.676l-0.002 0.002 25.545-24.635-25.849-24.635c-1.121-1.422-2.843-2.326-4.777-2.326-3.351 0-6.068 2.717-6.068 6.068 0 2.102 1.068 3.954 2.692 5.043l0.022 0.014 10.255 9.769h-40.472v-25.485c24.982-3.328 44.052-24.5 44.052-50.126 0-0.041 0-0.081 0-0.122v0.006-34.526h8.009c2.832 0 5.127-2.296 5.127-5.127s-2.296-5.127-5.127-5.127h-7.949v-1.881c-0.019-6.852-3.675-12.845-9.139-16.154l-0.084-0.047 3.944-3.944c0.926-0.923 1.499-2.2 1.499-3.61s-0.573-2.687-1.499-3.61v0c-0.942-0.884-2.213-1.428-3.61-1.428s-2.669 0.543-3.613 1.43l-1.271 1.271v-1.82c0-2.832-2.296-5.127-5.127-5.127s-5.127 2.296-5.127 5.127v1.76l-1.214-1.214c-0.942-0.884-2.213-1.428-3.61-1.428s-2.669 0.543-3.613 1.43l0.003-0.003c-0.912 0.93-1.474 2.204-1.474 3.61s0.563 2.681 1.475 3.611l3.943 3.943c-5.548 3.356-9.204 9.349-9.223 16.198v41.749h-44.174c-0.496-11.45-5.498-21.643-13.265-28.922l-0.023-0.021c-7.528-6.906-17.606-11.138-28.672-11.138-1.506 0-2.994 0.078-4.459 0.231l0.183-0.015c-2.635 0.217-4.691 2.409-4.691 5.081 0 0.155 0.007 0.309 0.021 0.46l-0.001-0.020c0.251 2.67 2.482 4.743 5.197 4.743 0.114 0 0.228-0.004 0.34-0.011l-0.015 0.001c1.015-0.113 2.191-0.177 3.382-0.177 8.407 0 16.066 3.202 21.825 8.452l-0.026-0.023c5.451 5.046 9.12 11.948 9.998 19.696l0.013 0.145c-4.64-12.512-16.463-21.272-30.336-21.298h-0.003c-2.832 0-5.127 2.296-5.127 5.127s2.296 5.127 5.127 5.127v0c0.030 0 0.066 0 0.101 0 10.826 0 19.832 7.789 21.722 18.068l0.021 0.136c0.355 25.567 19.616 46.527 44.415 49.55l0.244 0.024v25.363h-19.296l-19.235-13.349c-1.113-1.209-2.703-1.963-4.469-1.963-3.351 0-6.068 2.717-6.068 6.068 0 2.511 1.526 4.666 3.701 5.589l0.040 0.015 13.531 9.587-13.531 9.708c-1.771 1.081-2.935 3.003-2.935 5.196 0 3.351 2.717 6.068 6.068 6.068 1.464 0 2.807-0.519 3.855-1.382l-0.010 0.008 18.932-13.41h19.296v62.134l-114.56-57.705c-4.204-2.119-9.162-3.36-14.411-3.36s-10.207 1.241-14.599 3.445l0.188-0.085-156.124 76.151c-4.364 2.149-8.028 5.095-10.936 8.678l-0.047 0.060-123.055 152.18c-4.454 5.512-7.152 12.604-7.16 20.325v130.945h-1.274c-59.347 4.45-113.464 12.198-166.356 23.275l8.169-1.431c-2.111-16.65-3.315-35.914-3.315-55.46 0-257.1 208.421-465.521 465.521-465.521 0.27 0 0.539 0 0.809 0.001h-0.042c8.556 0 17.172 0 25.545 0.667 0.245 0.014 0.531 0.022 0.819 0.022 8.39 0 15.192-6.801 15.192-15.192 0-8.102-6.342-14.723-14.333-15.168l-0.039-0.002c-8.98-0.485-18.203-0.728-27.244-0.728-0.046 0-0.101 0-0.156 0-274.291 0-496.648 222.357-496.648 496.648s222.357 496.648 496.648 496.648c113.747 0 218.563-38.239 302.294-102.563l-1.175 0.867c1.705-0.908 3.152-2.064 4.354-3.441l0.015-0.018c116.966-91.594 191.435-232.816 191.439-391.432v-0.001zM692.577 161.464v0s0 0 0 0 0 0 0 0zM672.918 84.949h6.068c-2.944 19.537-19.615 34.343-39.744 34.343s-36.8-14.806-39.716-34.121l-0.028-0.222h10.497c3.505 14.359 16.258 24.849 31.461 24.849s27.956-10.49 31.416-24.627l0.046-0.222zM641.426 99.572c-9.507-0.016-17.604-6.036-20.703-14.47l-0.049-0.153h41.504c-3.117 8.608-11.187 14.664-20.681 14.745h-0.010zM679.592 37.924c-0.099-1.83-1.608-3.277-3.454-3.277-1.91 0-3.459 1.548-3.459 3.459 0 1.908 1.546 3.456 3.454 3.459v0c0.001 0 0.003 0 0.005 0 1.91 0 3.459-1.548 3.459-3.459 0-0.064-0.002-0.128-0.005-0.191v36.416h-17.233v-41.322c0-4.759 3.858-8.616 8.616-8.616s8.616 3.858 8.616 8.616v0zM956.344 605.080c-10.083 58.588-29.771 110.985-57.548 158.039l1.178-2.157h-100.058c0-0.667 0-1.335 0-2.002v-175.359c58.194 4.010 111.732 11.641 163.95 22.83l-7.522-1.35zM251.753 923.942h489.792c-69.594 43.752-154.214 69.708-244.896 69.708s-175.303-25.956-246.836-70.844l1.94 1.136zM784.747 893.603h-576.44c-88.453-70.080-150.482-170.139-170.76-284.619l-0.413-2.812c44.213-9.622 97.6-17.307 151.985-21.415l4.079-0.247v174.449c0 8.378 6.792 15.169 15.169 15.169s15.169-6.792 15.169-15.169v0-329.663c0-0.006 0-0.013 0-0.020 0-0.474 0.16-0.91 0.428-1.259l-0.004 0.005 122.933-152.18c0.195-0.232 0.439-0.417 0.715-0.541l0.013-0.005 156.003-76.333c0.265-0.138 0.578-0.219 0.91-0.219s0.646 0.081 0.921 0.224l-0.011-0.005 143.807 72.449c0.265 0.136 0.488 0.32 0.664 0.542l119.539 155.886c0.257 0.333 0.415 0.754 0.425 1.211v329.908c0 1.106-0.896 2.002-2.002 2.002v0h-132.763v-218.44c-0.034-15.737-12.782-28.484-28.515-28.519h-219.96c-15.737 0.034-28.484 12.782-28.519 28.515v218.443h-50.181c-8.378 0-15.169 6.792-15.169 15.169s6.792 15.169 15.169 15.169v0h572.86q-12.136 17.9-26.213 34.586h-614.364c-8.378 0-15.169 6.792-15.169 15.169s6.792 15.169 15.169 15.169v0h586.694c-12.993 12.987-26.744 25.219-41.18 36.622l-0.991 0.755zM604.776 737.297l-84.039-84.039 84.039-84.039zM499.318 631.778l-87.133-87.133h174.267zM388.338 563.88l89.379 89.379-89.379 89.379zM499.197 674.738l86.284 86.284h-172.447z"></path>
<path fill="#000" d="M424.745 452.536h147.083c15.255-0.034 27.609-12.409 27.609-27.669 0-0.043 0-0.085 0-0.128v0.007-63.408c-0.034-15.234-12.375-27.574-27.605-27.608h-147.086c-15.234 0.034-27.574 12.375-27.608 27.605v63.411c0 0.036 0 0.079 0 0.121 0 15.26 12.353 27.635 27.605 27.669h0.003zM427.718 364.067h141.379v58.129h-141.379z"></path>
</svg>
