<!-- Generated by IcoMoon.io -->
<svg version="1.1" xmlns="http://www.w3.org/2000/svg" width="1024" height="1024" viewBox="0 0 1024 1024">
<title></title>
<g id="icomoon-ignore">
</g>
<path fill="#000" d="M556.58 459.034h-247.174c-10.594 0-17.656 7.062-17.656 17.656v211.862c0 10.594 7.062 17.656 17.656 17.656h247.174c10.594 0 17.656-7.062 17.656-17.656v-211.862c-0.002-10.594-7.064-17.656-17.656-17.656zM538.924 670.896h-211.862v-176.552h211.862v176.552z"></path>
<path fill="#000" d="M380.028 70.62c-10.594 0-17.656 7.062-17.656 17.656v35.31c0 10.594 7.062 17.656 17.656 17.656s17.656-7.062 17.656-17.656v-35.31c-0.002-10.594-7.064-17.656-17.656-17.656z"></path>
<path fill="#000" d="M697.82 353.104h-52.966v-13.984c0.408-2.692 0.406-5.448-0.44-7.982-0.64-3.124-1.988-5.806-3.918-7.934l-66.264-132.526v-114.76c0.002-42.374-33.542-75.918-75.914-75.918h-130.648c-42.372 0-75.918 33.544-75.918 75.918v112.994l-68.856 137.71c-2.766 4.148-3.332 9.372-1.766 13.99v607.472c0 42.372 33.544 75.918 75.918 75.918h271.89c42.372 0 75.918-33.544 75.918-75.918v-100.634h52.966c58.262 0 105.932-47.668 105.932-105.932v-282.484c-0.002-58.262-47.672-105.93-105.934-105.93zM256.442 353.104h351.338v459.034h-351.338v-459.034zM644.856 459.034h52.966v282.482h-52.966v-282.482zM327.062 75.918c0-22.952 17.656-40.606 40.606-40.606h130.648c22.952 0 40.606 17.656 40.606 40.606v100.634h-211.86v-100.634zM320 211.862h225.986l52.966 105.932h-331.918l52.966-105.932zM607.78 948.082c0 21.186-17.656 40.606-40.606 40.606h-270.126c-21.186 0-40.606-19.42-40.606-40.606v-100.634h351.338v100.634zM768.442 741.518c0 38.842-31.78 70.62-70.62 70.62h-52.966v-35.31h52.966c19.42 0 35.31-15.89 35.31-35.31v-282.484c0-19.42-15.89-35.31-35.31-35.31h-52.966v-35.31h52.966c38.842 0 70.62 31.78 70.62 70.62v282.484z"></path>
</svg>
