<?xml version="1.0" encoding="UTF-8"?>
<svg id="Layer_1" data-name="Layer 1" xmlns="http://www.w3.org/2000/svg" width="100" height="100" viewBox="0 0 100 100">
  <defs>
    <style>
      .cls-1 {
        fill: #000;
        strokeWidth: 0px;
      }
    </style>
  </defs>
  <path class="cls-1" d="M54.29,34.81c-.55,0-1,.45-1,1v37.81c0,.55.45,1,1,1s1-.45,1-1v-37.81c0-.55-.45-1-1-1Z"/>
  <path class="cls-1" d="M54.29,76.77c-.55,0-1,.45-1,1v2.77c0,.55.45,1,1,1s1-.45,1-1v-2.77c0-.55-.45-1-1-1Z"/>
  <path class="cls-1" d="M51.15,19.28c.55,0,1-.45,1-1v-4.49c0-.55-.45-1-1-1s-1,.45-1,1v4.49c0,.55.45,1,1,1Z"/>
  <path class="cls-1" d="M71.11,58.34c0-9.13-3.72-17.84-10.45-24.52l-2.22-2.35c-.52-1.12-1.3-2.08-2.27-2.82h.05s-.58-2.8-.58-2.8c-.16-.78-.64-1.35-1.24-1.53v-1.68c.69-.47,1.14-1.26,1.14-2.15v-6.81c0-2.59-2.11-4.7-4.7-4.7h-13.51c-2.68,0-4.86,2.18-4.86,4.86v6.66c0,.95.51,1.77,1.27,2.22v1.56c-.68.13-1.22.74-1.39,1.6l-.55,2.79h.02c-1.78,1.36-2.93,3.5-2.93,5.91v48.99c0,4.11,3.35,7.46,7.46,7.46h15.36c3.86,0,7.03-2.95,7.39-6.72,7.74-6.87,12.01-16.08,12.01-25.97ZM69.11,58.34c0,8.71-3.53,16.88-9.97,23.2v-1.97c5.25-5.89,8.38-13.79,8.38-21.19,0-7.92-2.98-15.44-8.38-21.23v-2.03l.09.1c6.37,6.32,9.88,14.53,9.88,23.12ZM59.14,76.43v-36.23c4.13,5.16,6.38,11.52,6.38,18.18,0,6.19-2.36,12.76-6.38,18.05ZM52.41,23.09v1.15h-16.66v-1.15h16.66ZM34.48,13.83c0-1.57,1.28-2.86,2.86-2.86h13.51c1.49,0,2.7,1.21,2.7,2.7v6.81c0,.33-.27.6-.6.6h-17.86c-.33,0-.6-.27-.6-.6v-6.66ZM34.32,26.26s0-.01,0-.02h19.36s0,0,0,.01l.25,1.23c-.71-.23-1.46-.35-2.25-.35h-15.36c-.79,0-1.54.12-2.25.35l.24-1.22ZM57.14,83.6c0,2.99-2.43,5.43-5.43,5.43h-15.36c-3.01,0-5.46-2.45-5.46-5.46v-48.99c0-3,2.44-5.44,5.44-5.44h15.36c2.3,0,4.27,1.43,5.07,3.45h0s0,0,0,0c.24.62.38,1.29.38,1.99v49.02Z"/>
</svg>